<?xml version="1.0" encoding="utf-8"?>
<!-- Generator: Adobe Illustrator 20.0.0, SVG Export Plug-In . SVG Version: 6.00 Build 0)  -->
<svg version="1.1" id="Layer_1" xmlns="http://www.w3.org/2000/svg" xmlns:xlink="http://www.w3.org/1999/xlink" x="0px" y="0px"
	 width="80px" height="80px" viewBox="0 0 80 80" style="enable-background:new 0 0 80 80;" xml:space="preserve">
<style type="text/css">
	.st0{enable-background:new    ;}
	.st1{fill:#85C441;}
</style>
<g>
	<g class="st0">
		<circle class="st1" cx="37.9" cy="62" r="12.6"/>
	</g>
	<g>
		<path d="M53.6,47c3.7,3.9,6,9.2,6,15c0,7.4-3.7,13.9-9.3,17.8c10.4-3.2,19-11,22.8-20.5c5.3-13.1,0.4-22.9-8-31.9
			c0.3,1.2,0.4,2.4,0.4,3.6C65.6,38.6,60.5,45,53.6,47z"/>
	</g>
	<g class="st0">
		<circle class="st1" cx="49" cy="31.1" r="9.6"/>
	</g>
	<g>
		<path d="M21.3,76c-3.2-3.8-5.1-8.6-5.1-14c0-11.1,8.3-20.3,19.1-21.5c-1.8-2.7-2.9-5.9-2.9-9.4c0-9.2,7.4-16.6,16.6-16.6
			c0.8,0,1.5,0.1,2.2,0.2C45.8,9.9,40.4,5.2,36.1,0c2.2,22.8-20.7,14.5-29.2,35.5C1.2,49.5,6.3,66.9,21.3,76z"/>
	</g>
</g>
</svg>
