<?xml version="1.0" encoding="utf-8"?>
<!-- Generator: Adobe Illustrator 19.1.0, SVG Export Plug-In . SVG Version: 6.00 Build 0)  -->
<svg version="1.1" id="Layer_1" xmlns="http://www.w3.org/2000/svg" xmlns:xlink="http://www.w3.org/1999/xlink" x="0px" y="0px"
	 width="32px" height="32px" viewBox="0 0 32 32" enable-background="new 0 0 32 32" xml:space="preserve">
<g id="Down_Arrow_2_1_">
	<g>
		<path d="M29.8,21.8L16.5,9.2C16.4,9.1,16.2,9,16,9s-0.4,0.1-0.5,0.2L2.2,21.8C2.1,21.9,2,22.1,2,22.3C2,22.7,2.3,23,2.7,23
			c0.2,0,0.4-0.1,0.5-0.2L16,10.7l12.8,12.1c0.1,0.1,0.3,0.2,0.5,0.2c0.4,0,0.7-0.3,0.7-0.7C30,22.1,29.9,21.9,29.8,21.8z"/>
	</g>
</g>
</svg>
