<?xml version="1.0" encoding="utf-8"?>
<!-- Generator: Adobe Illustrator 19.1.0, SVG Export Plug-In . SVG Version: 6.00 Build 0)  -->
<svg version="1.1" id="Layer_1" xmlns="http://www.w3.org/2000/svg" xmlns:xlink="http://www.w3.org/1999/xlink" x="0px" y="0px"
	 width="32px" height="32px" viewBox="0 0 32 32" style="enable-background:new 0 0 32 32;" xml:space="preserve">
<style type="text/css">
	.st0{fill-rule:evenodd;clip-rule:evenodd;}
</style>
<path class="st0" d="M17.8,16.5L17.8,16.5L5.2,29.8l0,0C5.1,29.9,4.9,30,4.7,30C4.3,30,4,29.7,4,29.3c0-0.2,0.1-0.4,0.2-0.5l0,0
	L16.3,16L4.2,3.2l0,0C4.1,3.1,4,2.9,4,2.7C4,2.3,4.3,2,4.7,2c0.2,0,0.4,0.1,0.5,0.2l12.6,13.3c0.1,0.1,0.2,0.3,0.2,0.5
	S17.9,16.4,17.8,16.5z M28,16c0-0.2-0.1-0.4-0.2-0.5L15.2,2.2C15.1,2.1,14.9,2,14.7,2C14.3,2,14,2.3,14,2.7c0,0.2,0.1,0.4,0.2,0.5
	l0,0L26.3,16L14.2,28.8l0,0c-0.1,0.1-0.2,0.3-0.2,0.5c0,0.4,0.3,0.7,0.7,0.7c0.2,0,0.4-0.1,0.5-0.2l0,0l12.6-13.3l0,0
	C27.9,16.4,28,16.2,28,16z"/>
</svg>
