<?xml version="1.0" encoding="utf-8"?>
<!-- Generator: Adobe Illustrator 19.1.0, SVG Export Plug-In . SVG Version: 6.00 Build 0)  -->
<svg version="1.1" id="Layer_1" xmlns="http://www.w3.org/2000/svg" xmlns:xlink="http://www.w3.org/1999/xlink" x="0px" y="0px"
	 width="32px" height="32px" viewBox="0 0 32 32" enable-background="new 0 0 32 32" xml:space="preserve">
<g id="Down_Arrow_2_1_">
	<g>
		<path d="M29.3,9c-0.2,0-0.4,0.1-0.5,0.2L16,21.3L3.2,9.2C3.1,9.1,2.9,9,2.7,9C2.3,9,2,9.3,2,9.7c0,0.2,0.1,0.4,0.2,0.5l13.3,12.6
			c0.1,0.1,0.3,0.2,0.5,0.2s0.4-0.1,0.5-0.2l13.3-12.6c0.1-0.1,0.2-0.3,0.2-0.5C30,9.3,29.7,9,29.3,9z"/>
	</g>
</g>
</svg>
