<?xml version="1.0" encoding="utf-8"?>
<!-- Generator: Adobe Illustrator 19.1.0, SVG Export Plug-In . SVG Version: 6.00 Build 0)  -->
<svg version="1.1" id="Layer_1" xmlns="http://www.w3.org/2000/svg" xmlns:xlink="http://www.w3.org/1999/xlink" x="0px" y="0px"
	 width="32px" height="32px" viewBox="0 0 32 32" enable-background="new 0 0 32 32" xml:space="preserve">
<g id="Down_Arrow_2_1_">
	<g>
		<path d="M22.8,15.5L10.2,2.2C10.1,2.1,9.9,2,9.7,2C9.3,2,9,2.3,9,2.7c0,0.2,0.1,0.4,0.2,0.5L21.3,16L9.2,28.8
			C9.1,28.9,9,29.1,9,29.3C9,29.7,9.3,30,9.7,30c0.2,0,0.4-0.1,0.5-0.2l12.6-13.3c0.1-0.1,0.2-0.3,0.2-0.5S22.9,15.6,22.8,15.5z"/>
	</g>
</g>
</svg>
