<?xml version="1.0" encoding="utf-8"?>
<!-- Generator: Adobe Illustrator 19.1.0, SVG Export Plug-In . SVG Version: 6.00 Build 0)  -->
<svg version="1.1" id="Layer_1" xmlns="http://www.w3.org/2000/svg" xmlns:xlink="http://www.w3.org/1999/xlink" x="0px" y="0px"
	 width="32px" height="32px" viewBox="0 0 32 32" style="enable-background:new 0 0 32 32;" xml:space="preserve">
<style type="text/css">
	.st0{fill-rule:evenodd;clip-rule:evenodd;}
</style>
<path class="st0" d="M15.5,17.8L15.5,17.8L2.2,5.2l0,0C2.1,5.1,2,4.9,2,4.7C2,4.3,2.3,4,2.7,4c0.2,0,0.4,0.1,0.5,0.2l0,0L16,16.3
	L28.8,4.2l0,0C28.9,4.1,29.1,4,29.3,4C29.7,4,30,4.3,30,4.7c0,0.2-0.1,0.4-0.2,0.5L16.5,17.8C16.4,17.9,16.2,18,16,18
	S15.6,17.9,15.5,17.8z M16,28c0.2,0,0.4-0.1,0.5-0.2l13.3-12.6c0.1-0.1,0.2-0.3,0.2-0.5c0-0.4-0.3-0.7-0.7-0.7
	c-0.2,0-0.4,0.1-0.5,0.2l0,0L16,26.3L3.2,14.2l0,0C3.1,14.1,2.9,14,2.7,14C2.3,14,2,14.3,2,14.7c0,0.2,0.1,0.4,0.2,0.5l0,0
	l13.3,12.6l0,0C15.6,27.9,15.8,28,16,28z"/>
</svg>
