<?xml version="1.0" encoding="utf-8"?>
<!-- Generator: Adobe Illustrator 19.1.0, SVG Export Plug-In . SVG Version: 6.00 Build 0)  -->
<svg version="1.1" id="Layer_1" xmlns="http://www.w3.org/2000/svg" xmlns:xlink="http://www.w3.org/1999/xlink" x="0px" y="0px"
	 width="32px" height="32px" viewBox="0 0 32 32" style="enable-background:new 0 0 32 32;" xml:space="preserve">
<style type="text/css">
	.st0{fill-rule:evenodd;clip-rule:evenodd;}
</style>
<path class="st0" d="M16.5,14.2L16.5,14.2l13.3,12.6l0,0c0.1,0.1,0.2,0.3,0.2,0.5c0,0.4-0.3,0.7-0.7,0.7c-0.2,0-0.4-0.1-0.5-0.2l0,0
	L16,15.7L3.2,27.8l0,0C3.1,27.9,2.9,28,2.7,28C2.3,28,2,27.7,2,27.3c0-0.2,0.1-0.4,0.2-0.5l13.3-12.6c0.1-0.1,0.3-0.2,0.5-0.2
	S16.4,14.1,16.5,14.2z M16,4c-0.2,0-0.4,0.1-0.5,0.2L2.2,16.8C2.1,16.9,2,17.1,2,17.3C2,17.7,2.3,18,2.7,18c0.2,0,0.4-0.1,0.5-0.2
	l0,0L16,5.7l12.8,12.1l0,0c0.1,0.1,0.3,0.2,0.5,0.2c0.4,0,0.7-0.3,0.7-0.7c0-0.2-0.1-0.4-0.2-0.5l0,0L16.5,4.2l0,0
	C16.4,4.1,16.2,4,16,4z"/>
</svg>
