<?xml version="1.0" encoding="utf-8"?>
<!-- Generator: Adobe Illustrator 19.1.0, SVG Export Plug-In . SVG Version: 6.00 Build 0)  -->
<svg version="1.1" id="Layer_1" xmlns="http://www.w3.org/2000/svg" xmlns:xlink="http://www.w3.org/1999/xlink" x="0px" y="0px"
	 width="32px" height="32px" viewBox="0 0 32 32" enable-background="new 0 0 32 32" xml:space="preserve">
<g id="Down_Arrow_2_1_">
	<g>
		<path d="M10.7,16L22.8,3.2C22.9,3.1,23,2.9,23,2.7C23,2.3,22.7,2,22.3,2c-0.2,0-0.4,0.1-0.5,0.2L9.2,15.5C9.1,15.6,9,15.8,9,16
			c0,0.2,0.1,0.4,0.2,0.5l12.6,13.3c0.1,0.1,0.3,0.2,0.5,0.2c0.4,0,0.7-0.3,0.7-0.7c0-0.2-0.1-0.4-0.2-0.5L10.7,16z"/>
	</g>
</g>
</svg>
