<?xml version="1.0" encoding="utf-8"?>
<!-- Generator: Adobe Illustrator 19.1.0, SVG Export Plug-In . SVG Version: 6.00 Build 0)  -->
<svg version="1.1" id="Layer_1" xmlns="http://www.w3.org/2000/svg" xmlns:xlink="http://www.w3.org/1999/xlink" x="0px" y="0px"
	 width="32px" height="32px" viewBox="0 0 32 32" style="enable-background:new 0 0 32 32;" xml:space="preserve">
<style type="text/css">
	.st0{fill-rule:evenodd;clip-rule:evenodd;}
</style>
<path class="st0" d="M14.2,15.5L14.2,15.5L26.8,2.2l0,0C26.9,2.1,27.1,2,27.3,2C27.7,2,28,2.3,28,2.7c0,0.2-0.1,0.4-0.2,0.5l0,0
	L15.7,16l12.1,12.8l0,0c0.1,0.1,0.2,0.3,0.2,0.5c0,0.4-0.3,0.7-0.7,0.7c-0.2,0-0.4-0.1-0.5-0.2L14.2,16.5C14.1,16.4,14,16.2,14,16
	S14.1,15.6,14.2,15.5z M4,16c0,0.2,0.1,0.4,0.2,0.5l12.6,13.3c0.1,0.1,0.3,0.2,0.5,0.2c0.4,0,0.7-0.3,0.7-0.7c0-0.2-0.1-0.4-0.2-0.5
	l0,0L5.7,16L17.8,3.2l0,0C17.9,3.1,18,2.9,18,2.7C18,2.3,17.7,2,17.3,2c-0.2,0-0.4,0.1-0.5,0.2l0,0L4.2,15.5l0,0
	C4.1,15.6,4,15.8,4,16z"/>
</svg>
