<?xml version="1.0" encoding="utf-8"?>
<!-- Generator: Adobe Illustrator 20.0.0, SVG Export Plug-In . SVG Version: 6.00 Build 0)  -->
<svg version="1.1" id="Layer_1" xmlns="http://www.w3.org/2000/svg" xmlns:xlink="http://www.w3.org/1999/xlink" x="0px" y="0px"
	 width="32px" height="32px" viewBox="0 0 32 32" style="enable-background:new 0 0 32 32;" xml:space="preserve">
<g>
	<path d="M1.31,15.2l2.04-6.31c4.71,1.66,8.13,3.1,10.27,4.31c-0.56-5.36-0.86-9.05-0.89-11.07h6.44
		c-0.09,2.93-0.43,6.61-1.02,11.02c3.05-1.54,6.55-2.96,10.49-4.27l2.04,6.31c-3.76,1.24-7.45,2.07-11.07,2.49
		c1.81,1.57,4.36,4.37,7.65,8.4l-5.33,3.78c-1.72-2.34-3.75-5.53-6.09-9.56c-2.19,4.18-4.12,7.36-5.78,9.56l-5.24-3.78
		c3.44-4.24,5.9-7.04,7.38-8.4C8.38,16.95,4.75,16.12,1.31,15.2z"/>
</g>
</svg>
