<?xml version="1.0" encoding="utf-8"?>
<!-- Generator: Adobe Illustrator 19.1.0, SVG Export Plug-In . SVG Version: 6.00 Build 0)  -->
<svg version="1.1" id="Layer_1" xmlns="http://www.w3.org/2000/svg" xmlns:xlink="http://www.w3.org/1999/xlink" x="0px" y="0px"
	 width="32px" height="32px" viewBox="0 0 32 32" style="enable-background:new 0 0 32 32;" xml:space="preserve">
<g id="Calendar_1_x40_2x.png">
	<g>
		<path d="M28.6,3.4h-2.8V1.3c0-0.4-0.3-0.7-0.7-0.7c-0.4,0-0.7,0.3-0.7,0.7v2.1H7.6V1.3c0-0.4-0.3-0.7-0.7-0.7
			c-0.4,0-0.7,0.3-0.7,0.7v2.1H3.4c-1.5,0-2.8,1.3-2.8,2.8v22.4c0,1.5,1.3,2.8,2.8,2.8h25.2c1.5,0,2.8-1.3,2.8-2.8V6.2
			C31.4,4.7,30.1,3.4,28.6,3.4z M30,28.6c0,0.8-0.6,1.4-1.4,1.4H3.4C2.6,30,2,29.4,2,28.6V11.8h28V28.6z M30,10.4H2V6.2
			c0-0.8,0.6-1.4,1.4-1.4h2.8v2.1c0,0.4,0.3,0.7,0.7,0.7c0.4,0,0.7-0.3,0.7-0.7V4.8h16.8v2.1c0,0.4,0.3,0.7,0.7,0.7
			c0.4,0,0.7-0.3,0.7-0.7V4.8h2.8c0.8,0,1.4,0.6,1.4,1.4V10.4z M20.9,26.5h1.3V15.2h-1c-0.1,0.4-0.2,0.8-0.4,1
			c-0.2,0.3-0.4,0.5-0.7,0.7c-0.3,0.2-0.6,0.3-0.9,0.3c-0.3,0.1-0.7,0.1-1.1,0.1v1.1h2.8V26.5z M14.3,24.9c-0.2,0.2-0.5,0.3-0.8,0.4
			c-0.3,0.1-0.6,0.2-0.9,0.2c-0.7,0-1.3-0.2-1.7-0.7c-0.4-0.5-0.6-1.1-0.6-1.8H9c0,0.6,0.1,1.1,0.2,1.6c0.2,0.5,0.4,0.8,0.7,1.2
			c0.3,0.3,0.7,0.5,1.2,0.7c0.5,0.2,1,0.2,1.5,0.2c0.5,0,1-0.1,1.5-0.2s0.9-0.4,1.2-0.6c0.3-0.3,0.6-0.6,0.8-1.1
			c0.2-0.4,0.3-0.9,0.3-1.5c0-0.7-0.2-1.3-0.5-1.8c-0.3-0.5-0.8-0.8-1.5-1v0c0.4-0.2,0.8-0.5,1.1-0.9c0.3-0.4,0.4-0.8,0.4-1.3
			c0-0.5-0.1-1-0.3-1.3c-0.2-0.4-0.4-0.7-0.7-0.9c-0.3-0.2-0.7-0.4-1.1-0.5c-0.4-0.1-0.8-0.2-1.3-0.2c-0.5,0-1,0.1-1.4,0.3
			c-0.4,0.2-0.8,0.4-1,0.7c-0.3,0.3-0.5,0.7-0.6,1.1c-0.1,0.4-0.2,0.9-0.3,1.5h1.3c0-0.3,0-0.6,0.1-0.9c0.1-0.3,0.2-0.6,0.4-0.8
			c0.2-0.2,0.4-0.4,0.6-0.5c0.3-0.1,0.6-0.2,0.9-0.2c0.6,0,1,0.2,1.4,0.5c0.4,0.3,0.6,0.8,0.6,1.4c0,0.3-0.1,0.6-0.2,0.8
			c-0.1,0.2-0.3,0.4-0.5,0.6c-0.2,0.2-0.4,0.3-0.7,0.3c-0.3,0.1-0.5,0.1-0.8,0.1H12c0,0-0.1,0-0.1,0v1.1c0.2,0,0.5,0,0.8,0
			c0.3,0,0.6,0,0.9,0.1c0.3,0.1,0.5,0.2,0.7,0.4c0.2,0.2,0.4,0.4,0.5,0.7c0.1,0.3,0.2,0.6,0.2,0.9c0,0.3-0.1,0.6-0.2,0.9
			C14.6,24.5,14.5,24.7,14.3,24.9z"/>
	</g>
</g>
</svg>
