<?xml version="1.0" encoding="utf-8"?>
<!-- Generator: Adobe Illustrator 21.0.0, SVG Export Plug-In . SVG Version: 6.00 Build 0)  -->
<svg version="1.1" id="Layer_1" xmlns="http://www.w3.org/2000/svg" xmlns:xlink="http://www.w3.org/1999/xlink" x="0px" y="0px"
	 width="32px" height="32px" viewBox="0 0 32 32" style="enable-background:new 0 0 32 32;" xml:space="preserve">
<path d="M16,0.6C7.5,0.6,0.6,7.5,0.6,16S7.5,31.4,16,31.4S31.4,24.5,31.4,16S24.5,0.6,16,0.6z M16,30C8.3,30,2,23.7,2,16S8.3,2,16,2
	s14,6.3,14,14S23.7,30,16,30z M25.8,16.5c-0.1,0.1-0.3,0.2-0.5,0.2h-8.6v8.6c0,0.2-0.1,0.4-0.2,0.5c-0.3,0.3-0.7,0.3-1,0
	c-0.1-0.1-0.2-0.3-0.2-0.5v-8.6H6.7c-0.2,0-0.4-0.1-0.5-0.2c-0.3-0.3-0.3-0.7,0-1c0.1-0.1,0.3-0.2,0.5-0.2h8.6V6.7
	c0-0.2,0.1-0.4,0.2-0.5c0.3-0.3,0.7-0.3,1,0c0.1,0.1,0.2,0.3,0.2,0.5v8.6h8.6c0.2,0,0.4,0.1,0.5,0.2C26.1,15.8,26.1,16.2,25.8,16.5z
	"/>
</svg>
