<?xml version="1.0" encoding="utf-8"?>
<!-- Generator: Adobe Illustrator 19.1.0, SVG Export Plug-In . SVG Version: 6.00 Build 0)  -->
<svg version="1.1" id="Layer_1" xmlns="http://www.w3.org/2000/svg" xmlns:xlink="http://www.w3.org/1999/xlink" x="0px" y="0px"
	 width="32px" height="32px" viewBox="0 0 32 32" style="enable-background:new 0 0 32 32;" xml:space="preserve">
<g id="Clipboard_x40_2x.png">
	<g>
		<path d="M8.3,16h8.4c0.4,0,0.7-0.3,0.7-0.7c0-0.4-0.3-0.7-0.7-0.7H8.3c-0.4,0-0.7,0.3-0.7,0.7C7.6,15.7,7.9,16,8.3,16z M27.2,4.8
			h-5.6V3.4C21.6,2.6,21,2,20.2,2h-2.8c0-0.8-0.6-1.4-1.4-1.4S14.6,1.2,14.6,2h-2.8c-0.8,0-1.4,0.6-1.4,1.4v1.4H4.8
			C4,4.8,3.4,5.4,3.4,6.2V30c0,0.8,0.6,1.4,1.4,1.4h22.4c0.8,0,1.4-0.6,1.4-1.4V6.2C28.6,5.4,28,4.8,27.2,4.8z M11.8,3.4h8.4v2.8
			h-8.4V3.4z M27.2,30H4.8V10.4h22.4V30z M27.2,9H4.8V6.2h5.6c0,0.8,0.6,1.4,1.4,1.4h8.4c0.8,0,1.4-0.6,1.4-1.4h5.6V9z M8.3,24.4
			h12.6c0.4,0,0.7-0.3,0.7-0.7c0-0.4-0.3-0.7-0.7-0.7H8.3c-0.4,0-0.7,0.3-0.7,0.7C7.6,24.1,7.9,24.4,8.3,24.4z M8.3,20.2h15.4
			c0.4,0,0.7-0.3,0.7-0.7c0-0.4-0.3-0.7-0.7-0.7H8.3c-0.4,0-0.7,0.3-0.7,0.7C7.6,19.9,7.9,20.2,8.3,20.2z"/>
	</g>
</g>
</svg>
