<?xml version="1.0" encoding="utf-8"?>
<!-- Generator: Adobe Illustrator 19.1.0, SVG Export Plug-In . SVG Version: 6.00 Build 0)  -->
<svg version="1.1" id="Layer_1" xmlns="http://www.w3.org/2000/svg" xmlns:xlink="http://www.w3.org/1999/xlink" x="0px" y="0px"
	 width="32px" height="32px" viewBox="0 0 32 32" style="enable-background:new 0 0 32 32;" xml:space="preserve">
<g id="X_x40_2x.png">
	<g>
		<path d="M17,16L28.4,4.6c0.1-0.1,0.2-0.3,0.2-0.5c0-0.4-0.3-0.7-0.7-0.7c-0.2,0-0.4,0.1-0.5,0.2L16,15L4.6,3.6
			C4.5,3.5,4.3,3.4,4.1,3.4c-0.4,0-0.7,0.3-0.7,0.7c0,0.2,0.1,0.4,0.2,0.5L15,16L3.6,27.4c-0.1,0.1-0.2,0.3-0.2,0.5
			c0,0.4,0.3,0.7,0.7,0.7c0.2,0,0.4-0.1,0.5-0.2L16,17l11.4,11.4c0.1,0.1,0.3,0.2,0.5,0.2c0.4,0,0.7-0.3,0.7-0.7
			c0-0.2-0.1-0.4-0.2-0.5L17,16z"/>
	</g>
</g>
</svg>
