<?xml version="1.0" encoding="utf-8"?>
<!-- Generator: Adobe Illustrator 19.1.0, SVG Export Plug-In . SVG Version: 6.00 Build 0)  -->
<svg version="1.1" id="Layer_1" xmlns="http://www.w3.org/2000/svg" xmlns:xlink="http://www.w3.org/1999/xlink" x="0px" y="0px"
	 width="32px" height="32px" viewBox="0 0 32 32" enable-background="new 0 0 32 32" xml:space="preserve">
<g id="Chat_Bubble_x40_2x.png">
	<g>
		<path d="M16,2C7.5,2,0.6,7.6,0.6,14.6c0,3.4,1.7,6.5,4.4,8.8L3.4,30l8.3-3.3c1.4,0.3,2.8,0.5,4.3,0.5c8.5,0,15.4-5.6,15.4-12.6
			C31.4,7.6,24.5,2,16,2z M16,25.8c-1.3,0-2.7-0.2-4-0.5c-0.1,0-0.2,0-0.3,0c-0.2,0-0.4,0-0.5,0.1l-5.8,2.3l0.9-4
			c0.1-0.5-0.1-1.1-0.5-1.4C3.4,20.2,2,17.5,2,14.6C2,8.4,8.3,3.4,16,3.4c7.7,0,14,5,14,11.2S23.7,25.8,16,25.8z"/>
	</g>
</g>
</svg>
