<?xml version="1.0" encoding="utf-8"?>
<!-- Generator: Adobe Illustrator 19.1.0, SVG Export Plug-In . SVG Version: 6.00 Build 0)  -->
<svg version="1.1" id="Layer_1" xmlns="http://www.w3.org/2000/svg" xmlns:xlink="http://www.w3.org/1999/xlink" x="0px" y="0px"
	 width="32px" height="32px" viewBox="0 0 32 32" style="enable-background:new 0 0 32 32;" xml:space="preserve">
<g id="Chat_Bubbles_x40_2x.png">
	<g>
		<path d="M31.4,11.5c0-5.2-5-9.5-11.2-9.5c-4.6,0-8.6,2.4-10.3,5.7c0.6-0.1,1.1-0.1,1.7-0.1c1.7-2.5,4.9-4.2,8.6-4.2
			c5.4,0,9.8,3.6,9.8,8.1c0,2.2-1,4.2-2.9,5.7c-0.4,0.4-0.6,0.9-0.5,1.5l0.6,2l-2.9-1.1C24.2,20,24.1,20.5,24,21l5.3,2l-1.4-4.7
			C30.1,16.5,31.4,14.1,31.4,11.5z M11.8,9C5.6,9,0.6,13.2,0.6,18.5c0,2.7,1.3,5.1,3.5,6.8L2.7,30L9,27.6c0.9,0.2,1.8,0.3,2.8,0.3
			c6.2,0,11.2-4.2,11.2-9.4C23,13.2,18,9,11.8,9z M11.8,26.5c-0.8,0-1.7-0.1-2.5-0.3c-0.1,0-0.2,0-0.3,0c-0.2,0-0.3,0-0.5,0.1
			l-3.7,1.4l0.6-2c0.2-0.5,0-1.1-0.5-1.5C3,22.6,2,20.6,2,18.5c0-4.4,4.4-8.1,9.8-8.1c5.4,0,9.8,3.6,9.8,8.1
			C21.6,22.9,17.2,26.5,11.8,26.5z"/>
	</g>
</g>
</svg>
