<?xml version="1.0" encoding="utf-8"?>
<!-- Generator: Adobe Illustrator 19.1.0, SVG Export Plug-In . SVG Version: 6.00 Build 0)  -->
<svg version="1.1" id="Layer_1" xmlns="http://www.w3.org/2000/svg" xmlns:xlink="http://www.w3.org/1999/xlink" x="0px" y="0px"
	 width="32px" height="32px" viewBox="0 0 32 32" style="enable-background:new 0 0 32 32;" xml:space="preserve">
<path d="M16,2c7.7,0,14,6.3,14,14c0,7.7-6.3,14-14,14C8.3,30,2,23.7,2,16c0-0.5,0-1,0.1-1.5c0.1,0,0.1,0,0.2,0c0.7,0,1.4-0.2,2-0.6
	c0.6,0.4,1.3,0.6,2,0.6c1.3,0,2.5-0.7,3.3-1.6c2.2-0.1,3.9-1.8,4-4c1.1-0.7,1.8-2,1.8-3.4c0-0.7-0.2-1.4-0.6-2C15,3,15.2,2.6,15.3,2
	C15.5,2,15.8,2,16,2 M16,0.6c-0.2,0-0.4,0-0.6,0l-0.2,0l-1.1,0.1l-0.2,1.1c-0.1,0.3-0.2,0.7-0.3,1l-0.4,0.7l0.4,0.7
	c0.2,0.4,0.4,0.9,0.4,1.3c0,0.9-0.4,1.7-1.2,2.2l-0.6,0.4l0,0.7c0,1.4-1.2,2.6-2.6,2.6l-0.7,0l-0.4,0.5c-0.5,0.7-1.3,1.1-2.1,1.1
	c-0.5,0-0.9-0.1-1.3-0.4l-0.7-0.4l-0.7,0.4c-0.4,0.2-0.8,0.4-1.3,0.4c-0.1,0-0.1,0-0.2,0l-1.3,0l-0.1,1.3c-0.1,0.5-0.1,1.1-0.1,1.6
	c0,8.5,6.9,15.4,15.4,15.4S31.4,24.5,31.4,16S24.5,0.6,16,0.6L16,0.6z M6.9,21.1c-0.9,0-1.6-0.7-1.6-1.6c0-0.9,0.7-1.6,1.6-1.6
	c0.9,0,1.6,0.7,1.6,1.6C8.5,20.4,7.8,21.1,6.9,21.1z M13.8,26.4c-0.9,0-1.6-0.7-1.6-1.6c0-0.9,0.7-1.6,1.6-1.6
	c0.9,0,1.6,0.7,1.6,1.6C15.4,25.7,14.7,26.4,13.8,26.4z M12.3,20.2c-0.9,0-1.6-0.7-1.6-1.6c0-0.9,0.7-1.6,1.6-1.6
	c0.9,0,1.6,0.7,1.6,1.6C13.9,19.5,13.1,20.2,12.3,20.2z M20.7,24.8c-0.9,0-1.6-0.7-1.6-1.6c0-0.9,0.7-1.6,1.6-1.6
	c0.9,0,1.6,0.7,1.6,1.6C22.3,24.1,21.6,24.8,20.7,24.8z M19.1,18.6c-0.9,0-1.6-0.7-1.6-1.6c0-0.9,0.7-1.6,1.6-1.6
	c0.9,0,1.6,0.7,1.6,1.6C20.7,17.9,20,18.6,19.1,18.6z M16.6,13.2c-0.9,0-1.6-0.7-1.6-1.6c0-0.9,0.7-1.6,1.6-1.6
	c0.9,0,1.6,0.7,1.6,1.6C18.2,12.4,17.5,13.2,16.6,13.2z M25.5,17.9c-0.9,0-1.6-0.7-1.6-1.6c0-0.9,0.7-1.6,1.6-1.6
	c0.9,0,1.6,0.7,1.6,1.6C27.1,17.2,26.4,17.9,25.5,17.9z M22.3,10.7c-0.9,0-1.6-0.7-1.6-1.6c0-0.9,0.7-1.6,1.6-1.6
	c0.9,0,1.6,0.7,1.6,1.6C23.9,10,23.2,10.7,22.3,10.7z"/>
</svg>
