<?xml version="1.0" encoding="utf-8"?>
<!-- Generator: Adobe Illustrator 19.1.0, SVG Export Plug-In . SVG Version: 6.00 Build 0)  -->
<svg version="1.1" id="Layer_1" xmlns="http://www.w3.org/2000/svg" xmlns:xlink="http://www.w3.org/1999/xlink" x="0px" y="0px"
	 width="32px" height="32px" viewBox="0 0 32 32" style="enable-background:new 0 0 32 32;" xml:space="preserve">
<path d="M7.3,10.1c-0.3-0.2-0.8-0.1-1,0.3c-0.2,0.3-0.1,0.8,0.3,1c0.3,0.2,0.8,0.1,1-0.3C7.7,10.8,7.6,10.3,7.3,10.1z M10.4,6.3
	c-0.3,0.2-0.4,0.6-0.3,1c0.2,0.3,0.6,0.4,1,0.3c0.3-0.2,0.4-0.6,0.3-1C11.2,6.2,10.7,6.1,10.4,6.3z M16,4.8c-0.4,0-0.7,0.3-0.7,0.7
	c0,0.4,0.3,0.7,0.7,0.7c0.4,0,0.7-0.3,0.7-0.7C16.7,5.1,16.4,4.8,16,4.8z M6.6,20.6c-0.3,0.2-0.4,0.6-0.3,1c0.2,0.3,0.6,0.4,1,0.3
	c0.3-0.2,0.4-0.6,0.3-1C7.3,20.6,6.9,20.5,6.6,20.6z M5.5,15.3c-0.4,0-0.7,0.3-0.7,0.7c0,0.4,0.3,0.7,0.7,0.7c0.4,0,0.7-0.3,0.7-0.7
	C6.2,15.6,5.9,15.3,5.5,15.3z M21.6,6.3c-0.3-0.2-0.8-0.1-1,0.3c-0.2,0.3-0.1,0.8,0.3,1c0.3,0.2,0.8,0.1,1-0.3
	C22,6.9,21.9,6.5,21.6,6.3z M16,0.6C7.5,0.6,0.6,7.5,0.6,16c0,8.5,6.9,15.4,15.4,15.4c8.5,0,15.4-6.9,15.4-15.4
	C31.4,7.5,24.5,0.6,16,0.6z M16,30C8.3,30,2,23.7,2,16C2,8.3,8.3,2,16,2c7.7,0,14,6.3,14,14C30,23.7,23.7,30,16,30z M26.5,15.3
	c-0.4,0-0.7,0.3-0.7,0.7c0,0.4,0.3,0.7,0.7,0.7c0.4,0,0.7-0.3,0.7-0.7C27.2,15.6,26.9,15.3,26.5,15.3z M25.4,20.6
	c-0.3-0.2-0.8-0.1-1,0.3c-0.2,0.3-0.1,0.8,0.3,1c0.3,0.2,0.8,0.1,1-0.3C25.9,21.3,25.8,20.8,25.4,20.6z M24.7,10.1
	c-0.3,0.2-0.4,0.6-0.3,1c0.2,0.3,0.6,0.4,1,0.3c0.3-0.2,0.4-0.6,0.3-1C25.5,10.1,25.1,10,24.7,10.1z M18.2,15.4
	c0.2,0.8,0,1.6-0.6,2.2c-0.9,0.9-2.4,0.9-3.3,0c-0.9-0.9-0.9-2.4,0-3.3c0.6-0.6,1.4-0.8,2.2-0.6l8-6.5L18.2,15.4z"/>
</svg>
