<?xml version="1.0" encoding="utf-8"?>
<!-- Generator: Adobe Illustrator 19.1.0, SVG Export Plug-In . SVG Version: 6.00 Build 0)  -->
<svg version="1.1" id="Layer_1" xmlns="http://www.w3.org/2000/svg" xmlns:xlink="http://www.w3.org/1999/xlink" x="0px" y="0px"
	 width="32px" height="32px" viewBox="0 0 32 32" enable-background="new 0 0 32 32" xml:space="preserve">
<g id="Pencil_x40_2x.png">
	<g>
		<path d="M25.8,0.6c-1.5,0-2.9,0.6-4,1.6L2.9,21.1L0.6,31.4l10.3-2.3l18.9-18.9c1-1,1.6-2.4,1.6-4C31.4,3.1,28.9,0.6,25.8,0.6z
			 M9.7,27.8l-4.9,1.1v-1.7H3.1l1.1-4.9h5.5V27.8z M11.1,26.8v-5.2c0-0.4-0.3-0.7-0.7-0.7H5.2L20.2,5.8l5.9,5.9L11.1,26.8z
			 M28.8,9.2l-1.6,1.6l-5.9-5.9l1.6-1.6c0,0,1.1-1.2,3-1.2C28.1,2,30,3.9,30,6.2C30,7.4,29.5,8.4,28.8,9.2z"/>
	</g>
</g>
</svg>
