<?xml version="1.0" encoding="utf-8"?>
<!-- Generator: Adobe Illustrator 19.1.0, SVG Export Plug-In . SVG Version: 6.00 Build 0)  -->
<svg version="1.1" id="Layer_1" xmlns="http://www.w3.org/2000/svg" xmlns:xlink="http://www.w3.org/1999/xlink" x="0px" y="0px"
	 width="32px" height="32px" viewBox="0 0 32 32" enable-background="new 0 0 32 32" xml:space="preserve">
<g id="Page_2_x40_2x.png">
	<g>
		<path d="M21.6,0.6H6.2c-1.5,0-2.8,1.3-2.8,2.8v25.2c0,1.5,1.3,2.8,2.8,2.8h19.6c1.5,0,2.8-1.3,2.8-2.8V8.3L21.6,0.6z M27.2,28.6
			c0,0.8-0.6,1.4-1.4,1.4H6.2c-0.8,0-1.4-0.6-1.4-1.4V3.4C4.8,2.6,5.4,2,6.2,2h12.6v7c0,0.8,0.6,1.4,1.4,1.4h7V28.6z M20.2,9V2h0.7
			l6.3,7H20.2z"/>
	</g>
</g>
</svg>
