<?xml version="1.0" encoding="utf-8"?>
<!-- Generator: Adobe Illustrator 19.1.0, SVG Export Plug-In . SVG Version: 6.00 Build 0)  -->
<svg version="1.1" id="Layer_1" xmlns="http://www.w3.org/2000/svg" xmlns:xlink="http://www.w3.org/1999/xlink" x="0px" y="0px"
	 width="32px" height="32px" viewBox="0 0 32 32" style="enable-background:new 0 0 32 32;" xml:space="preserve">
<g id="Box_with_Papers_x40_2x.png">
	<g>
		<path d="M11.8,21.6h8.4c0.8,0,1.4-0.6,1.4-1.4v-1.4c0-0.8-0.6-1.4-1.4-1.4h-8.4c-0.8,0-1.4,0.6-1.4,1.4v1.4
			C10.4,21,11,21.6,11.8,21.6z M11.8,18.8h8.4v1.4h-8.4V18.8z M30,9h-2.8V3.4c0-0.8-0.6-1.4-1.4-1.4h-5.6l-1.4-1.4H6.2
			C5.4,0.6,4.8,1.2,4.8,2v7H2c-0.8,0-1.4,0.6-1.4,1.4v2.8c0,0.8,0.6,1.4,1.4,1.4h1.4V30c0,0.8,0.6,1.4,1.4,1.4h22.4
			c0.8,0,1.4-0.6,1.4-1.4V14.6H30c0.8,0,1.4-0.6,1.4-1.4v-2.8C31.4,9.6,30.8,9,30,9z M25.8,3.4V9H23V4.8l-1.4-1.4H25.8z M18.8,2.7
			l2.1,2.1h-2.1V2.7z M6.2,2h11.2v3.5c0,0.4,0.3,0.7,0.7,0.7h3.5V9H6.2V2z M27.2,30H4.8V14.6h22.4V30z M30,13.2H2v-2.8h28V13.2z"/>
	</g>
</g>
</svg>
