<?xml version="1.0" encoding="utf-8"?>
<!-- Generator: Adobe Illustrator 19.1.0, SVG Export Plug-In . SVG Version: 6.00 Build 0)  -->
<svg version="1.1" id="Layer_1" xmlns="http://www.w3.org/2000/svg" xmlns:xlink="http://www.w3.org/1999/xlink" x="0px" y="0px"
	 width="32px" height="32px" viewBox="0 0 32 32" style="enable-background:new 0 0 32 32;" xml:space="preserve">
<g id="Grid_11_1_">
	<g>
		<path d="M7.6,11.8H2c-0.8,0-1.4,0.6-1.4,1.4v5.6c0,0.8,0.6,1.4,1.4,1.4h5.6c0.8,0,1.4-0.6,1.4-1.4v-5.6C9,12.4,8.4,11.8,7.6,11.8z
			 M7.6,18.8H2v-5.6h5.6V18.8z M30,11.8h-5.6c-0.8,0-1.4,0.6-1.4,1.4v5.6c0,0.8,0.6,1.4,1.4,1.4H30c0.8,0,1.4-0.6,1.4-1.4v-5.6
			C31.4,12.4,30.8,11.8,30,11.8z M30,18.8h-5.6v-5.6H30V18.8z M7.6,23H2c-0.8,0-1.4,0.6-1.4,1.4V30c0,0.8,0.6,1.4,1.4,1.4h5.6
			C8.4,31.4,9,30.8,9,30v-5.6C9,23.6,8.4,23,7.6,23z M7.6,30H2v-5.6h5.6V30z M18.8,0.6h-5.6c-0.8,0-1.4,0.6-1.4,1.4v5.6
			c0,0.8,0.6,1.4,1.4,1.4h5.6c0.8,0,1.4-0.6,1.4-1.4V2C20.2,1.2,19.6,0.6,18.8,0.6z M18.8,7.6h-5.6V2h5.6V7.6z M30,0.6h-5.6
			C23.6,0.6,23,1.2,23,2v5.6C23,8.4,23.6,9,24.4,9H30c0.8,0,1.4-0.6,1.4-1.4V2C31.4,1.2,30.8,0.6,30,0.6z M30,7.6h-5.6V2H30V7.6z
			 M30,23h-5.6c-0.8,0-1.4,0.6-1.4,1.4V30c0,0.8,0.6,1.4,1.4,1.4H30c0.8,0,1.4-0.6,1.4-1.4v-5.6C31.4,23.6,30.8,23,30,23z M30,30
			h-5.6v-5.6H30V30z M18.8,11.8h-5.6c-0.8,0-1.4,0.6-1.4,1.4v5.6c0,0.8,0.6,1.4,1.4,1.4h5.6c0.8,0,1.4-0.6,1.4-1.4v-5.6
			C20.2,12.4,19.6,11.8,18.8,11.8z M18.8,18.8h-5.6v-5.6h5.6V18.8z M7.6,0.6H2C1.2,0.6,0.6,1.2,0.6,2v5.6C0.6,8.4,1.2,9,2,9h5.6
			C8.4,9,9,8.4,9,7.6V2C9,1.2,8.4,0.6,7.6,0.6z M7.6,7.6H2V2h5.6V7.6z M18.8,23h-5.6c-0.8,0-1.4,0.6-1.4,1.4V30
			c0,0.8,0.6,1.4,1.4,1.4h5.6c0.8,0,1.4-0.6,1.4-1.4v-5.6C20.2,23.6,19.6,23,18.8,23z M18.8,30h-5.6v-5.6h5.6V30z"/>
	</g>
</g>
</svg>
