<?xml version="1.0" encoding="utf-8"?>
<!-- Generator: Adobe Illustrator 19.1.0, SVG Export Plug-In . SVG Version: 6.00 Build 0)  -->
<svg version="1.1" id="Layer_1" xmlns="http://www.w3.org/2000/svg" xmlns:xlink="http://www.w3.org/1999/xlink" x="0px" y="0px"
	 width="32px" height="32px" viewBox="0 0 32 32" style="enable-background:new 0 0 32 32;" xml:space="preserve">
<g>
	<g id="X_x40_2x.png_2_">
		<g>
			<path d="M30.8,7.5c-0.1-0.1-0.3-0.2-0.5-0.2H1.7c-0.2,0-0.4,0.1-0.5,0.2c-0.3,0.3-0.3,0.7,0,1c0.1,0.1,0.3,0.2,0.5,0.2l28.7,0
				c0.2,0,0.4-0.1,0.5-0.2C31.1,8.2,31.1,7.8,30.8,7.5z"/>
		</g>
	</g>
	<g id="X_x40_2x.png_4_">
		<g>
			<path d="M30.8,15.5c-0.1-0.1-0.3-0.2-0.5-0.2H1.7c-0.2,0-0.4,0.1-0.5,0.2c-0.3,0.3-0.3,0.7,0,1c0.1,0.1,0.3,0.2,0.5,0.2l28.7,0
				c0.2,0,0.4-0.1,0.5-0.2C31.1,16.2,31.1,15.8,30.8,15.5z"/>
		</g>
	</g>
	<g id="X_x40_2x.png_6_">
		<g>
			<path d="M30.8,23.5c-0.1-0.1-0.3-0.2-0.5-0.2H1.7c-0.2,0-0.4,0.1-0.5,0.2c-0.3,0.3-0.3,0.7,0,1c0.1,0.1,0.3,0.2,0.5,0.2l28.7,0
				c0.2,0,0.4-0.1,0.5-0.2C31.1,24.2,31.1,23.8,30.8,23.5z"/>
		</g>
	</g>
</g>
</svg>
