<?xml version="1.0" encoding="utf-8"?>
<!-- Generator: Adobe Illustrator 19.1.0, SVG Export Plug-In . SVG Version: 6.00 Build 0)  -->
<svg version="1.1" id="Layer_1" xmlns="http://www.w3.org/2000/svg" xmlns:xlink="http://www.w3.org/1999/xlink" x="0px" y="0px"
	 width="32px" height="32px" viewBox="0 0 32 32" enable-background="new 0 0 32 32" xml:space="preserve">
<g id="Heart_x40_2x.png">
	<g>
		<path d="M31.4,9.7c0-5-4.1-9.1-9.1-9.1c-2.4,0-4.7,1-6.3,2.5c-1.6-1.6-3.9-2.5-6.3-2.5c-5,0-9.1,4.1-9.1,9.1c0,0.6,0.1,1.3,0.1,1
			c1,9,14,20.7,15.3,20.7s14.4-11.7,15.3-20.7C31.3,11,31.4,10.3,31.4,9.7z M29.9,10.6C29.1,18.1,18.6,28.3,16,29.9
			C13.4,28.3,2.9,18.1,2.1,10.6c0,0-0.1-0.4-0.1-0.9C2,5.5,5.5,2,9.7,2c2,0,3.9,0.8,5.3,2.2l1,0.9l1-0.9C18.4,2.8,20.3,2,22.3,2
			C26.5,2,30,5.5,30,9.7C30,10.2,29.9,10.6,29.9,10.6z"/>
	</g>
</g>
</svg>
