<?xml version="1.0" encoding="utf-8"?>
<!-- Generator: Adobe Illustrator 19.1.0, SVG Export Plug-In . SVG Version: 6.00 Build 0)  -->
<svg version="1.1" id="Layer_1" xmlns="http://www.w3.org/2000/svg" xmlns:xlink="http://www.w3.org/1999/xlink" x="0px" y="0px"
	 width="32px" height="32px" viewBox="0 0 32 32" enable-background="new 0 0 32 32" xml:space="preserve">
<g id="Life_Preserver_x40_2x.png">
	<g>
		<path d="M16,0.6C7.5,0.6,0.6,7.5,0.6,16c0,8.5,6.9,15.4,15.4,15.4c8.5,0,15.4-6.9,15.4-15.4C31.4,7.5,24.5,0.6,16,0.6z M16,2
			c3.6,0,6.9,1.4,9.4,3.6l-3.5,3.5c-1.6-1.4-3.7-2.2-5.9-2.2c-2.3,0-4.3,0.8-5.9,2.2L6.6,5.6C9.1,3.4,12.4,2,16,2z M23.7,16
			c0,4.3-3.4,7.7-7.7,7.7S8.3,20.3,8.3,16c0-4.3,3.4-7.7,7.7-7.7S23.7,11.7,23.7,16z M2,16c0-3.6,1.4-6.9,3.6-9.4l3.5,3.5
			c-1.4,1.6-2.2,3.7-2.2,5.9c0,2.3,0.8,4.3,2.2,5.9l-3.5,3.5C3.4,22.9,2,19.6,2,16z M16,30c-3.6,0-6.9-1.4-9.4-3.6l3.5-3.5
			c1.6,1.4,3.7,2.2,5.9,2.2c2.3,0,4.3-0.8,5.9-2.2l3.5,3.5C22.9,28.6,19.6,30,16,30z M26.4,25.4l-3.5-3.5c1.4-1.6,2.2-3.7,2.2-5.9
			c0-2.3-0.8-4.3-2.2-5.9l3.5-3.5C28.6,9.1,30,12.4,30,16C30,19.6,28.6,22.9,26.4,25.4z"/>
	</g>
</g>
</svg>
