<?xml version="1.0" encoding="utf-8"?>
<!-- Generator: Adobe Illustrator 19.1.0, SVG Export Plug-In . SVG Version: 6.00 Build 0)  -->
<svg version="1.1" id="Layer_1" xmlns="http://www.w3.org/2000/svg" xmlns:xlink="http://www.w3.org/1999/xlink" x="0px" y="0px"
	 width="32px" height="32px" viewBox="0 0 32 32" style="enable-background:new 0 0 32 32;" xml:space="preserve">
<g>
	<path d="M29.7,19.4l2-1.7l-1.6-2.1l1.5-2.2l-2.1-1.6l0.8-2.5l-2.4-1L28,5.7l-2.6-0.3l-0.6-2.6l-2.6,0.4L20.9,1l-2.4,1.1l-1.8-1.9
		l-2,1.7l-2.3-1.3l-1.4,2.2L8.4,2.2L7.6,4.8L5,4.8L4.9,7.5L2.3,8.2L3,10.8l-2.2,1.4L2,14.5l-1.7,2l1.9,1.9L1,20.7L3.3,22l-0.5,2.6
		l2.6,0.6l0.2,2.6l2.6-0.1l0.9,2.5l2.5-0.8l1.6,2.1l2.2-1.4l2.1,1.6l1.7-2l2.4,1l1.1-2.4l2.6,0.3l0.5-2.6l2.6-0.4L28.3,23l2.4-1.1
		L29.7,19.4z M16,29.3C8.7,29.3,2.7,23.3,2.7,16S8.7,2.7,16,2.7S29.3,8.7,29.3,16S23.3,29.3,16,29.3z"/>
	<path d="M16,3.9C9.5,3.9,4.1,9.2,4.1,15.7c0,6.5,5.3,11.9,11.9,11.9c6.6,0,11.9-5.3,11.9-11.9C27.9,9.2,22.5,3.9,16,3.9z M16,26.3
		c-5.8,0-10.6-4.7-10.6-10.6C5.4,9.9,10.2,5.2,16,5.2s10.6,4.7,10.6,10.6C26.6,21.6,21.8,26.3,16,26.3z"/>
	<g id="Checkmark_1_x40_2x.png_2_">
		<g>
			<path d="M23.8,11.3c0-0.4-0.3-0.6-0.6-0.6c-0.2,0-0.3,0.1-0.5,0.2l0,0l-8.5,8.5l-4-3.9c-0.1-0.1-0.3-0.2-0.5-0.2
				c-0.4,0-0.6,0.3-0.6,0.6c0,0.2,0.1,0.3,0.2,0.5l4.4,4.4c0.1,0.1,0.3,0.2,0.5,0.2c0.2,0,0.3-0.1,0.5-0.2l0,0l8.9-8.9l0,0
				C23.7,11.6,23.8,11.4,23.8,11.3z"/>
		</g>
	</g>
</g>
</svg>
