<?xml version="1.0" encoding="utf-8"?>
<!-- Generator: Adobe Illustrator 19.1.0, SVG Export Plug-In . SVG Version: 6.00 Build 0)  -->
<svg version="1.1" id="Layer_1" xmlns="http://www.w3.org/2000/svg" xmlns:xlink="http://www.w3.org/1999/xlink" x="0px" y="0px"
	 width="32px" height="32px" viewBox="0 0 32 32" enable-background="new 0 0 32 32" xml:space="preserve">
<g id="Lightning_Bolt_x40_2x.png">
	<g>
		<path d="M24.4,12.5c0-0.4-0.3-0.7-0.7-0.7h-5.6l3.4-10.3l0,0c0-0.1,0-0.1,0-0.2c0-0.4-0.3-0.7-0.7-0.7h-7c-0.3,0-0.6,0.2-0.7,0.5
			l0,0L7.6,17.9l0,0c0,0.1,0,0.1,0,0.2c0,0.4,0.3,0.7,0.7,0.7h6.2l-1.3,11.8l0,0c0,0,0,0,0,0.1c0,0.4,0.3,0.7,0.7,0.7
			c0.3,0,0.5-0.2,0.6-0.4l0,0l9.8-18.2l0,0C24.4,12.7,24.4,12.6,24.4,12.5z M15,27.2l1-9l0,0c0,0,0,0,0-0.1c0-0.4-0.3-0.7-0.7-0.7
			h-6L14.4,2h5.5l-3.4,10.3l0,0c0,0.1,0,0.1,0,0.2c0,0.4,0.3,0.7,0.7,0.7h5.4L15,27.2z"/>
	</g>
</g>
</svg>
