<?xml version="1.0" encoding="utf-8"?>
<!-- Generator: Adobe Illustrator 19.1.0, SVG Export Plug-In . SVG Version: 6.00 Build 0)  -->
<svg version="1.1" id="Layer_1" xmlns="http://www.w3.org/2000/svg" xmlns:xlink="http://www.w3.org/1999/xlink" x="0px" y="0px"
	 width="32px" height="32px" viewBox="0 0 32 32" style="enable-background:new 0 0 32 32;" xml:space="preserve">
<g id="Grid_11_1_">
	<g>
		<path d="M30,23H2c-0.8,0-1.4,0.6-1.4,1.4V30c0,0.8,0.6,1.4,1.4,1.4h28c0.8,0,1.4-0.6,1.4-1.4v-5.6C31.4,23.6,30.8,23,30,23z
			 M30,30H2v-5.6h28V30z M30,0.6H2C1.2,0.6,0.6,1.2,0.6,2v5.6C0.6,8.4,1.2,9,2,9h28c0.8,0,1.4-0.6,1.4-1.4V2
			C31.4,1.2,30.8,0.6,30,0.6z M30,7.6H2V2h28V7.6z M30,11.8H2c-0.8,0-1.4,0.6-1.4,1.4v5.6c0,0.8,0.6,1.4,1.4,1.4h28
			c0.8,0,1.4-0.6,1.4-1.4v-5.6C31.4,12.4,30.8,11.8,30,11.8z M30,18.8H2v-5.6h28V18.8z"/>
	</g>
</g>
</svg>
