<?xml version="1.0" encoding="utf-8"?>
<!-- Generator: Adobe Illustrator 19.1.0, SVG Export Plug-In . SVG Version: 6.00 Build 0)  -->
<svg version="1.1" id="Layer_1" xmlns="http://www.w3.org/2000/svg" xmlns:xlink="http://www.w3.org/1999/xlink" x="0px" y="0px"
	 width="32px" height="32px" viewBox="0 0 32 32" enable-background="new 0 0 32 32" xml:space="preserve">
<g id="Unlock_x40_2x.png">
	<g>
		<path d="M24.4,13.2V9c0-4.6-3.8-8.4-8.4-8.4c-4.6,0-8.4,3.8-8.4,8.4c0,0.4,0.3,0.7,0.7,0.7S9,9.4,9,9c0-3.9,3.1-7,7-7s7,3.1,7,7
			v4.2H7.6c-1.5,0-2.8,1.3-2.8,2.8v12.6c0,1.5,1.3,2.8,2.8,2.8h16.8c1.5,0,2.8-1.3,2.8-2.8V16C27.2,14.5,25.9,13.2,24.4,13.2z
			 M25.8,28.6c0,0.8-0.6,1.4-1.4,1.4H7.6c-0.8,0-1.4-0.6-1.4-1.4V16c0-0.8,0.6-1.4,1.4-1.4h16.8c0.8,0,1.4,0.6,1.4,1.4V28.6z
			 M16,18.8c-1.5,0-2.8,1.3-2.8,2.8c0,0.7,0.3,1.4,0.7,1.9c0,0.1,0,0.2,0,0.2c0,1.2,0.9,2.1,2.1,2.1c1.2,0,2.1-0.9,2.1-2.1
			c0-0.1,0-0.2,0-0.2c0.4-0.5,0.7-1.1,0.7-1.9C18.8,20.1,17.5,18.8,16,18.8z M16.7,22.8v0.9c0,0.4-0.3,0.7-0.7,0.7s-0.7-0.3-0.7-0.7
			v-0.9c-0.4-0.2-0.7-0.7-0.7-1.2c0-0.8,0.6-1.4,1.4-1.4c0.8,0,1.4,0.6,1.4,1.4C17.4,22.1,17.1,22.6,16.7,22.8z"/>
	</g>
</g>
</svg>
