<?xml version="1.0" encoding="utf-8"?>
<!-- Generator: Adobe Illustrator 19.1.0, SVG Export Plug-In . SVG Version: 6.00 Build 0)  -->
<svg version="1.1" id="Layer_1" xmlns="http://www.w3.org/2000/svg" xmlns:xlink="http://www.w3.org/1999/xlink" x="0px" y="0px"
	 width="32px" height="32px" viewBox="0 0 32 32" enable-background="new 0 0 32 32" xml:space="preserve">
<g id="Power_1_">
	<g>
		<path d="M16,18.8c0.4,0,0.7-0.3,0.7-0.7V1.3c0-0.4-0.3-0.7-0.7-0.7s-0.7,0.3-0.7,0.7v16.8C15.3,18.5,15.6,18.8,16,18.8z M18.8,3.7
			L18.8,3.7c-0.4,0-0.7,0.3-0.7,0.7c0,0.4,0.3,0.7,0.7,0.7v0c5.6,1.3,9.8,6.3,9.8,12.3C28.6,24.4,23,30,16,30
			C9,30,3.4,24.4,3.4,17.4c0-6,4.2-11,9.8-12.3v0c0.4,0,0.7-0.3,0.7-0.7c0-0.4-0.3-0.7-0.7-0.7v0C6.8,5,2,10.6,2,17.4
			c0,7.7,6.3,14,14,14s14-6.3,14-14C30,10.6,25.2,5,18.8,3.7z"/>
	</g>
</g>
</svg>
