<?xml version="1.0" encoding="utf-8"?>
<!-- Generator: Adobe Illustrator 19.1.0, SVG Export Plug-In . SVG Version: 6.00 Build 0)  -->
<svg version="1.1" id="Layer_1" xmlns="http://www.w3.org/2000/svg" xmlns:xlink="http://www.w3.org/1999/xlink" x="0px" y="0px"
	 width="32px" height="32px" viewBox="0 0 32 32" enable-background="new 0 0 32 32" xml:space="preserve">
<g id="Location_Pin_1">
	<g>
		<path d="M16,0.6c-6.2,0-11.2,5-11.2,11.2C4.8,20.9,16,31.4,16,31.4s11.2-10.5,11.2-19.6C27.2,5.6,22.2,0.6,16,0.6z M16,29.3
			c0,0-9.8-9.1-9.8-17.5C6.2,6.4,10.6,2,16,2c5.4,0,9.8,4.4,9.8,9.8C25.8,20.2,16,29.3,16,29.3z M16,6.2c-3.1,0-5.6,2.5-5.6,5.6
			s2.5,5.6,5.6,5.6s5.6-2.5,5.6-5.6S19.1,6.2,16,6.2z M16,16c-2.3,0-4.2-1.9-4.2-4.2s1.9-4.2,4.2-4.2c2.3,0,4.2,1.9,4.2,4.2
			S18.3,16,16,16z"/>
	</g>
</g>
</svg>
