<?xml version="1.0" encoding="utf-8"?>
<!-- Generator: Adobe Illustrator 19.1.0, SVG Export Plug-In . SVG Version: 6.00 Build 0)  -->
<svg version="1.1" id="Layer_1" xmlns="http://www.w3.org/2000/svg" xmlns:xlink="http://www.w3.org/1999/xlink" x="0px" y="0px"
	 width="32px" height="32px" viewBox="0 0 32 32" enable-background="new 0 0 32 32" xml:space="preserve">
<g id="Phone_1_x40_2x.png">
	<g>
		<path d="M31.4,25.1L31.4,25.1c0-0.6-0.2-1.1-0.6-1.5c-0.1-0.1-0.2-0.2-0.4-0.3l-5.9-4.6c-0.4-0.4-0.9-0.6-1.5-0.6
			c-0.5,0-0.9,0.2-1.3,0.4l-1.7,1.7l0,0c-0.3,0.3-0.6,0.5-1,0.5c-0.5,0-0.9-0.2-1.1-0.6c0,0,0,0,0,0c-2.3-1.7-4.3-3.7-6-5.9
			c0,0,0,0,0,0c-0.4-0.3-0.6-0.7-0.6-1.2c0-0.4,0.2-0.8,0.5-1.1l0,0l1.6-1.6c0.3-0.3,0.4-0.8,0.4-1.3c0-0.6-0.2-1.1-0.6-1.5L8.7,1.6
			C8.6,1.5,8.5,1.3,8.4,1.2C8,0.8,7.5,0.6,6.9,0.6C4.1,0.6,0.6,3.9,0.6,8c0,1.1,0.3,2.2,0.7,3.1l0,0c4.2,8.4,11.2,15.4,19.6,19.6
			l0,0c1,0.5,2,0.7,3.1,0.7C28.1,31.4,31.4,27.9,31.4,25.1C31.4,25.1,31.4,25.1,31.4,25.1z M24,30c-0.9,0-1.7-0.2-2.5-0.6
			c-0.1,0-0.2-0.1-0.2-0.1c-8-4.1-14.6-10.7-18.6-18.6c0-0.1-0.1-0.2-0.1-0.2C2.2,9.7,2,8.8,2,8c0-3.4,3-6,4.9-6
			c0.3,0,0.4,0.1,0.5,0.2c0,0,0,0.1,0.1,0.1c0,0,0.1,0.1,0.1,0.1l4.6,5.9c0,0,0.1,0.1,0.1,0.1c0.1,0.1,0.2,0.2,0.2,0.5
			c0,0.1,0,0.2-0.1,0.3l-1.6,1.5c0,0,0,0,0,0c-0.6,0.5-0.9,1.3-0.9,2c0,0.7,0.3,1.4,0.8,1.9c0,0,0,0.1,0.1,0.1
			c1.7,2.4,3.8,4.5,6.3,6.3c0,0,0,0,0.1,0c0.5,0.5,1.2,0.8,1.9,0.8c0.7,0,1.4-0.3,2-0.8c0,0,0.1,0,0.1-0.1l1.6-1.6
			c0.1-0.1,0.2-0.1,0.4-0.1c0.3,0,0.4,0.1,0.5,0.2c0,0,0.1,0.1,0.1,0.1l5.9,4.6c0,0,0.1,0.1,0.1,0.1c0.1,0,0.1,0.1,0.1,0.1
			c0.1,0.1,0.2,0.2,0.2,0.5c0,0,0,0.1,0,0.1C29.9,27.2,27.4,30,24,30z"/>
	</g>
</g>
</svg>
