<?xml version="1.0" encoding="utf-8"?>
<!-- Generator: Adobe Illustrator 19.1.0, SVG Export Plug-In . SVG Version: 6.00 Build 0)  -->
<svg version="1.1" id="Layer_1" xmlns="http://www.w3.org/2000/svg" xmlns:xlink="http://www.w3.org/1999/xlink" x="0px" y="0px"
	 width="32px" height="32px" viewBox="0 0 32 32" style="enable-background:new 0 0 32 32;" xml:space="preserve">
<g id="X_x40_2x.png_8_">
	<g>
		<path d="M30.8,15.5c-0.1-0.1-0.3-0.2-0.5-0.2l-13.6,0V1.7c0-0.2-0.1-0.4-0.2-0.5c-0.3-0.3-0.7-0.3-1,0c-0.1,0.1-0.2,0.3-0.2,0.5
			l0,13.6l-13.6,0c-0.2,0-0.4,0.1-0.5,0.2c-0.3,0.3-0.3,0.7,0,1c0.1,0.1,0.3,0.2,0.5,0.2l13.6,0v13.6c0,0.2,0.1,0.4,0.2,0.5
			c0.3,0.3,0.7,0.3,1,0c0.1-0.1,0.2-0.3,0.2-0.5V16.7h13.6c0.2,0,0.4-0.1,0.5-0.2C31.1,16.2,31.1,15.8,30.8,15.5z"/>
	</g>
</g>
</svg>
