<?xml version="1.0" encoding="utf-8"?>
<!-- Generator: Adobe Illustrator 19.1.0, SVG Export Plug-In . SVG Version: 6.00 Build 0)  -->
<svg version="1.1" id="Layer_1" xmlns="http://www.w3.org/2000/svg" xmlns:xlink="http://www.w3.org/1999/xlink" x="0px" y="0px"
	 width="32px" height="32px" viewBox="0 0 32 32" style="enable-background:new 0 0 32 32;" xml:space="preserve">
<g id="Printer_1_">
	<g>
		<path d="M11.5,27.1h9.8c0.4,0,0.7-0.3,0.7-0.7c0-0.4-0.3-0.7-0.7-0.7h-9.8c-0.4,0-0.7,0.3-0.7,0.7C10.8,26.8,11.1,27.1,11.5,27.1z
			 M11.5,24.3h7c0.4,0,0.7-0.3,0.7-0.7c0-0.4-0.3-0.7-0.7-0.7h-7c-0.4,0-0.7,0.3-0.7,0.7C10.8,24,11.1,24.3,11.5,24.3z M22,13.1
			c-0.8,0-1.4,0.6-1.4,1.4s0.6,1.4,1.4,1.4c0.8,0,1.4-0.6,1.4-1.4S22.8,13.1,22,13.1z M26.2,13.1c-0.8,0-1.4,0.6-1.4,1.4
			s0.6,1.4,1.4,1.4c0.8,0,1.4-0.6,1.4-1.4S27,13.1,26.2,13.1z M27.6,8.9h-1.4v-7c0-0.8-0.6-1.4-1.4-1.4H8c-0.8,0-1.4,0.6-1.4,1.4v7
			H5.2C2.9,8.9,1,10.8,1,13.1v11.2c0,2.3,1.9,4.2,4.2,4.2h1.4v1.4c0,0.8,0.6,1.4,1.4,1.4h16.8c0.8,0,1.4-0.6,1.4-1.4v-1.4h1.4
			c2.3,0,4.2-1.9,4.2-4.2V13.1C31.8,10.8,29.9,8.9,27.6,8.9z M8,1.9h16.8v7H8V1.9z M24.8,29.9H8v-8.4h16.8V29.9z M30.4,24.3
			c0,1.5-1.3,2.8-2.8,2.8h-1.4v-5.6c0-0.8-0.6-1.4-1.4-1.4H8c-0.8,0-1.4,0.6-1.4,1.4v5.6H5.2c-1.5,0-2.8-1.3-2.8-2.8V13.1
			c0-1.5,1.3-2.8,2.8-2.8h22.4c1.5,0,2.8,1.3,2.8,2.8V24.3z"/>
	</g>
</g>
</svg>
