<?xml version="1.0" encoding="utf-8"?>
<!-- Generator: Adobe Illustrator 19.1.0, SVG Export Plug-In . SVG Version: 6.00 Build 0)  -->
<svg version="1.1" id="Layer_1" xmlns="http://www.w3.org/2000/svg" xmlns:xlink="http://www.w3.org/1999/xlink" x="0px" y="0px"
	 width="32px" height="32px" viewBox="0 0 32 32" style="enable-background:new 0 0 32 32;" xml:space="preserve">
<g id="Refresh_1_1_">
	<g>
		<path d="M30.7,15.3c-0.4,0-0.7,0.3-0.7,0.7c0,7.7-6.3,14-14,14S2,23.7,2,16C2,8.3,8.3,2,16,2c4.6,0,8.6,2.2,11.2,5.6h-5.6
			c-0.4,0-0.7,0.3-0.7,0.7c0,0.4,0.3,0.7,0.7,0.7h7c0.4,0,0.7-0.3,0.7-0.7v-7c0-0.4-0.3-0.7-0.7-0.7s-0.7,0.3-0.7,0.7v4.9
			C25.1,2.8,20.8,0.6,16,0.6C7.5,0.6,0.6,7.5,0.6,16c0,8.5,6.9,15.4,15.4,15.4c8.5,0,15.4-6.9,15.4-15.4
			C31.4,15.6,31.1,15.3,30.7,15.3z"/>
	</g>
</g>
</svg>
