<?xml version="1.0" encoding="utf-8"?>
<!-- Generator: Adobe Illustrator 19.1.0, SVG Export Plug-In . SVG Version: 6.00 Build 0)  -->
<svg version="1.1" id="Layer_1" xmlns="http://www.w3.org/2000/svg" xmlns:xlink="http://www.w3.org/1999/xlink" x="0px" y="0px"
	 width="32px" height="32px" viewBox="0 0 32 32" enable-background="new 0 0 32 32" xml:space="preserve">
<g id="Magnify_Glass_x40_2x.png">
	<g>
		<path d="M31.2,30.2l-7.4-7.4c2.1-2.4,3.4-5.5,3.4-8.9c0-7.3-6-13.3-13.3-13.3c-7.3,0-13.3,6-13.3,13.3c0,7.3,6,13.3,13.3,13.3
			c3.4,0,6.5-1.3,8.9-3.4l7.4,7.4c0.1,0.1,0.3,0.2,0.5,0.2c0.4,0,0.7-0.3,0.7-0.7C31.4,30.5,31.3,30.3,31.2,30.2z M13.9,25.8
			C7.3,25.8,2,20.5,2,13.9S7.3,2,13.9,2c6.6,0,11.9,5.3,11.9,11.9S20.5,25.8,13.9,25.8z"/>
	</g>
</g>
</svg>
