<?xml version="1.0" encoding="utf-8"?>
<!-- Generator: Adobe Illustrator 15.1.0, SVG Export Plug-In . SVG Version: 6.00 Build 0)  -->
<!DOCTYPE svg PUBLIC "-//W3C//DTD SVG 1.1//EN" "http://www.w3.org/Graphics/SVG/1.1/DTD/svg11.dtd">
<svg version="1.1" id="Layer_1" xmlns="http://www.w3.org/2000/svg" xmlns:xlink="http://www.w3.org/1999/xlink" x="0px" y="0px"
	 width="32px" height="32px" viewBox="1.008 1.008 32 32" enable-background="new 1.008 1.008 32 32" xml:space="preserve">
<path fill="#010202" d="M9.13,5.886c0,1.7-1.256,3.078-3.321,3.078c-1.944,0-3.2-1.379-3.2-3.078c0-1.741,1.298-3.078,3.282-3.078
	C7.874,2.808,9.09,4.146,9.13,5.886z M2.771,31.203V11.396h6.156v19.809L2.771,31.203L2.771,31.203z M12.613,17.715
	c0-2.47-0.082-4.536-0.163-6.318h5.347l0.285,2.756h0.121c0.811-1.299,2.797-3.199,6.117-3.199c4.051,0,7.088,2.714,7.088,8.546
	v11.707h-6.156V20.229c0-2.553-0.893-4.294-3.119-4.294c-1.699,0-2.713,1.174-3.156,2.31c-0.164,0.404-0.205,0.973-0.205,1.539
	v11.424h-6.157L12.613,17.715L12.613,17.715z"/>
</svg>
