<?xml version="1.0" encoding="utf-8"?>
<!-- Generator: Adobe Illustrator 20.1.0, SVG Export Plug-In . SVG Version: 6.00 Build 0)  -->
<svg version="1.1" id="Layer_1" xmlns="http://www.w3.org/2000/svg" xmlns:xlink="http://www.w3.org/1999/xlink" x="0px" y="0px"
	 viewBox="0 0 32 32" style="enable-background:new 0 0 32 32;" xml:space="preserve">
<path d="M30.5,10c0-1.2-0.3-2.4-0.7-3.6c-0.4-1-0.9-1.9-1.7-2.6c-0.7-0.7-1.6-1.3-2.6-1.7c-1.1-0.4-2.4-0.7-3.6-0.7
	c-1.6-0.1-2.1-0.1-6-0.1s-4.5,0-6,0.1c-1.2,0-2.4,0.3-3.6,0.7C5.3,2.5,4.4,3,3.7,3.8C3,4.5,2.4,5.4,2,6.4C1.6,7.6,1.4,8.8,1.3,10
	c-0.1,1.6-0.1,2.1-0.1,6s0,4.5,0.1,6c0,1.2,0.3,2.4,0.7,3.6c0.4,1,0.9,1.9,1.7,2.6c0.7,0.7,1.6,1.3,2.6,1.7c1.1,0.4,2.3,0.7,3.6,0.7
	c1.6,0.1,2.1,0.1,6,0.1s4.5,0,6-0.1c1.2,0,2.4-0.3,3.6-0.7c2-0.8,3.5-2.3,4.3-4.3c0.5-1.1,0.7-2.3,0.8-3.6c0.1-1.6,0.1-2.1,0.1-6
	S30.5,11.5,30.5,10z M27.8,22c0,0.9-0.2,1.8-0.5,2.7c-0.5,1.3-1.5,2.3-2.8,2.8c-0.9,0.3-1.8,0.5-2.7,0.5c-1.5,0.1-2,0.1-5.9,0.1
	s-4.4,0-5.9-0.1c-0.9,0-1.8-0.2-2.7-0.5c-0.6-0.2-1.2-0.6-1.7-1.1s-0.9-1-1.1-1.7c-0.3-0.9-0.5-1.8-0.5-2.7c-0.1-1.6-0.1-2.1-0.1-6
	s0-4.4,0.1-5.9c0-0.9,0.2-1.8,0.5-2.7c0.2-0.6,0.6-1.2,1.1-1.7s1-0.9,1.7-1.1C8.2,4.3,9.1,4.1,10,4.1C11.6,4,12.1,4,15.9,4
	s4.4,0,5.9,0.1c0.9,0,1.8,0.2,2.7,0.5c0.6,0.2,1.2,0.6,1.7,1.1s0.9,1,1.1,1.7c0.3,0.9,0.5,1.8,0.5,2.7c0.1,1.5,0.1,2,0.1,5.9
	S27.9,20.4,27.8,22L27.8,22z M15.9,8.5c-4.2,0-7.5,3.4-7.5,7.5s3.4,7.5,7.5,7.5s7.5-3.4,7.5-7.5S20.1,8.5,15.9,8.5L15.9,8.5z
	 M15.9,20.9c-2.7,0-4.9-2.2-4.9-4.9s2.2-4.9,4.9-4.9s4.9,2.2,4.9,4.9l0,0C20.8,18.7,18.6,20.9,15.9,20.9z M23.7,6.4
	c1,0,1.8,0.8,1.8,1.8S24.7,10,23.7,10s-1.8-0.8-1.8-1.8S22.8,6.4,23.7,6.4z"/>
</svg>
