<?xml version="1.0" encoding="utf-8"?>
<!-- Generator: Adobe Illustrator 19.1.0, SVG Export Plug-In . SVG Version: 6.00 Build 0)  -->
<svg version="1.1" id="Layer_1" xmlns="http://www.w3.org/2000/svg" xmlns:xlink="http://www.w3.org/1999/xlink" x="0px" y="0px"
	 width="32px" height="32px" viewBox="0 0 32 32" style="enable-background:new 0 0 32 32;" xml:space="preserve">
<style type="text/css">
	.st0{fill-rule:evenodd;clip-rule:evenodd;fill:#0D0807;}
</style>
<path class="st0" d="M10.2,14.6V18H16c-0.2,1.5-1.7,4.4-5.7,4.4c-3.5,0-6.3-2.9-6.3-6.4c0-3.5,2.8-6.4,6.3-6.4c2,0,3.3,0.8,4,1.6
	L17,8.5c-1.8-1.6-4.1-2.6-6.8-2.6C4.6,5.9,0.1,10.4,0.1,16c0,5.6,4.5,10.1,10.1,10.1c5.8,0,9.7-4.1,9.7-9.9c0-0.7-0.1-1.2-0.2-1.7
	H10.2L10.2,14.6L10.2,14.6z M10.2,14.6 M31.9,17.4H29v2.9h-2.9v-2.9h-2.9v-2.9h2.9v-2.9H29v2.9h2.9"/>
</svg>
