<?xml version="1.0" encoding="utf-8"?>
<!-- Generator: Adobe Illustrator 19.1.0, SVG Export Plug-In . SVG Version: 6.00 Build 0)  -->
<svg version="1.1" id="Layer_1" xmlns="http://www.w3.org/2000/svg" xmlns:xlink="http://www.w3.org/1999/xlink" x="0px" y="0px"
	 width="32px" height="32px" viewBox="0 0 32 32" enable-background="new 0 0 32 32" xml:space="preserve">
<g id="Mail_1_">
	<g>
		<path d="M28.6,4.8H3.4c-1.5,0-2.8,1.3-2.8,2.8v16.8c0,1.5,1.3,2.8,2.8,2.8h25.2c1.5,0,2.8-1.3,2.8-2.8V7.6
			C31.4,6.1,30.1,4.8,28.6,4.8z M3.4,6.2h25.2c0.2,0,0.3,0,0.5,0.1L16.9,18.4c-0.3,0.3-0.6,0.4-0.9,0.4c-0.4,0-0.7-0.1-0.9-0.4
			L2.9,6.3C3.1,6.2,3.2,6.2,3.4,6.2z M2,24.4V7.6c0-0.1,0-0.2,0-0.2l8.6,8.6L2,24.6C2,24.6,2,24.5,2,24.4z M28.6,25.8H3.4
			c-0.2,0-0.3,0-0.5-0.1l8.7-8.7l2.4,2.4c0.5,0.5,1.2,0.8,1.9,0.8c0.7,0,1.4-0.3,1.9-0.8l2.4-2.4l8.7,8.7
			C28.9,25.8,28.8,25.8,28.6,25.8z M30,24.4c0,0.1,0,0.2,0,0.2L21.3,16L30,7.4c0,0.1,0,0.2,0,0.2V24.4z"/>
	</g>
</g>
</svg>
