<?xml version="1.0" encoding="utf-8"?>
<!-- Generator: Adobe Illustrator 19.1.0, SVG Export Plug-In . SVG Version: 6.00 Build 0)  -->
<svg version="1.1" id="Layer_1" xmlns="http://www.w3.org/2000/svg" xmlns:xlink="http://www.w3.org/1999/xlink" x="0px" y="0px"
	 width="32px" height="32px" viewBox="0 0 32 32" style="enable-background:new 0 0 32 32;" xml:space="preserve">
<style type="text/css">
	.st0{fill-rule:evenodd;clip-rule:evenodd;}
</style>
<path class="st0" d="M26.6,10.6c0,0.2,0,0.5,0,0.7c0,7.1-5.5,15.4-15.6,15.4c-3.1,0-6-0.9-8.4-2.4c0.4,0,0.9,0.1,1.3,0.1
	c2.6,0,4.9-0.9,6.8-2.3c-2.4,0-4.4-1.6-5.1-3.8c0.3,0.1,0.7,0.1,1,0.1c0.5,0,1-0.1,1.4-0.2c-2.5-0.5-4.4-2.7-4.4-5.3c0,0,0,0,0-0.1
	c0.7,0.4,1.6,0.6,2.5,0.7c-1.5-1-2.4-2.6-2.4-4.5c0-1,0.3-1.9,0.7-2.7c2.7,3.3,6.8,5.4,11.3,5.6c-0.1-0.4-0.1-0.8-0.1-1.2
	c0-3,2.5-5.4,5.5-5.4c1.6,0,3,0.7,4,1.7c1.3-0.2,2.4-0.7,3.5-1.3c-0.4,1.3-1.3,2.3-2.4,3c1.1-0.1,2.2-0.4,3.2-0.9
	C28.6,8.9,27.7,9.9,26.6,10.6z"/>
</svg>
