<?xml version="1.0" encoding="utf-8"?>
<!-- Generator: Adobe Illustrator 19.1.0, SVG Export Plug-In . SVG Version: 6.00 Build 0)  -->
<svg version="1.1" id="Layer_1" xmlns="http://www.w3.org/2000/svg" xmlns:xlink="http://www.w3.org/1999/xlink" x="0px" y="0px"
	 width="32px" height="32px" viewBox="0 0 32 32" style="enable-background:new 0 0 32 32;" xml:space="preserve">
<style type="text/css">
	.st0{fill:#0D0807;}
</style>
<path class="st0" d="M13.5,18c0,1.1-0.9,2.1-2.1,2.1s-2.1-1-2.1-2.1s0.9-2.1,2.1-2.1S13.5,16.8,13.5,18z M20.6,15.9
	c-1.1,0-2.1,0.9-2.1,2.1s0.9,2.1,2.1,2.1s2.1-1,2.1-2.1S21.7,15.9,20.6,15.9z M24.6,6.2c0,0.9,0.7,1.7,1.7,1.7
	c0.9,0,1.7-0.7,1.7-1.7c0-0.9-0.7-1.7-1.7-1.7C25.3,4.5,24.6,5.2,24.6,6.2z M2.8,17.4c0.5-1.3,1.5-2.6,2.7-3.6
	c-0.4-0.3-0.8-0.4-1.3-0.4c-1.3,0-2.3,1-2.3,2.3C2,16.4,2.4,17,2.8,17.4z M9.2,27.5c-4.1-1.6-6.8-4.5-6.8-7.8c0-0.3,0-0.7,0.1-1
	c-1-0.6-1.6-1.7-1.6-2.9c0-1.9,1.5-3.4,3.4-3.4c0.9,0,1.6,0.3,2.2,0.9c2.4-1.5,5.5-2.5,9-2.5l2-6.5c0.1-0.3,0.4-0.5,0.7-0.4L23.7,5
	c0.4-1,1.4-1.7,2.6-1.7c1.6,0,2.8,1.3,2.8,2.8c0,1.6-1.3,2.8-2.8,2.8c-1.6,0-2.8-1.3-2.8-2.8L18.6,5l-1.8,5.6
	c3.3,0.1,6.3,1.1,8.6,2.6c0.6-0.6,1.4-0.9,2.3-0.9c1.9,0,3.4,1.5,3.4,3.4c0,1.3-0.7,2.4-1.7,3c0.1,0.3,0.1,0.6,0.1,1
	c0,3.3-2.8,6.3-6.8,7.8l-1.1,0.4c-1.7,0.5-3.6,0.8-5.6,0.8c-2,0-3.9-0.3-5.6-0.8L9.2,27.5z M28.3,19.7c0-4.3-5.5-7.9-12.4-7.9
	S3.6,15.3,3.6,19.7s5.5,7.9,12.4,7.9S28.3,24,28.3,19.7z M30,15.7c0-1.3-1-2.3-2.3-2.3c-0.5,0-1,0.2-1.3,0.5c1.3,1,2.2,2.3,2.7,3.6
	C29.6,17.1,30,16.5,30,15.7z M20.1,23.1c-0.8,0.8-2.1,1.2-4,1.2c0,0,0,0,0,0c0,0,0,0,0,0c-1.9,0-3.3-0.4-4-1.2
	c-0.2-0.2-0.6-0.2-0.8,0c-0.2,0.2-0.2,0.6,0,0.8c1,1,2.6,1.5,4.9,1.5c0,0,0,0,0,0c0,0,0,0,0,0c2.3,0,3.8-0.5,4.9-1.5
	c0.2-0.2,0.2-0.6,0-0.8C20.7,22.9,20.3,22.9,20.1,23.1z"/>
</svg>
