<?xml version="1.0" encoding="utf-8"?>
<!-- Generator: Adobe Illustrator 19.1.0, SVG Export Plug-In . SVG Version: 6.00 Build 0)  -->
<svg version="1.1" id="Layer_1" xmlns="http://www.w3.org/2000/svg" xmlns:xlink="http://www.w3.org/1999/xlink" x="0px" y="0px"
	 width="32px" height="32px" viewBox="0 0 32 32" enable-background="new 0 0 32 32" xml:space="preserve">
<g id="No_Entry_x40_2x.png">
	<g>
		<path d="M16,0.6C7.5,0.6,0.6,7.5,0.6,16c0,8.5,6.9,15.4,15.4,15.4c8.5,0,15.4-6.9,15.4-15.4C31.4,7.5,24.5,0.6,16,0.6z M16,30
			C8.3,30,2,23.7,2,16c0-3.6,1.4-6.9,3.6-9.4l19.8,19.8C22.9,28.6,19.6,30,16,30z M26.4,25.4L6.6,5.6C9.1,3.4,12.4,2,16,2
			c7.7,0,14,6.3,14,14C30,19.6,28.6,22.9,26.4,25.4z"/>
	</g>
</g>
</svg>
