<?xml version="1.0" encoding="utf-8"?>
<!-- Generator: Adobe Illustrator 19.1.0, SVG Export Plug-In . SVG Version: 6.00 Build 0)  -->
<svg version="1.1" id="Layer_1" xmlns="http://www.w3.org/2000/svg" xmlns:xlink="http://www.w3.org/1999/xlink" x="0px" y="0px"
	 width="32px" height="32px" viewBox="0 0 32 32" enable-background="new 0 0 32 32" xml:space="preserve">
<g id="Bar_Chart_x40_2x.png">
	<g>
		<path d="M5.5,18.8H1.3c-0.4,0-0.7,0.3-0.7,0.7v8.4c0,0.4,0.3,0.7,0.7,0.7h4.2c0.4,0,0.7-0.3,0.7-0.7v-8.4
			C6.2,19.1,5.9,18.8,5.5,18.8z M4.8,27.2H2v-7h2.8V27.2z M30.7,3.4h-4.2c-0.4,0-0.7,0.3-0.7,0.7v23.8c0,0.4,0.3,0.7,0.7,0.7h4.2
			c0.4,0,0.7-0.3,0.7-0.7V4.1C31.4,3.7,31.1,3.4,30.7,3.4z M30,27.2h-2.8V4.8H30V27.2z M13.9,6.2H9.7C9.3,6.2,9,6.5,9,6.9v21
			c0,0.4,0.3,0.7,0.7,0.7h4.2c0.4,0,0.7-0.3,0.7-0.7v-21C14.6,6.5,14.3,6.2,13.9,6.2z M13.2,27.2h-2.8V7.6h2.8V27.2z M22.3,14.6
			h-4.2c-0.4,0-0.7,0.3-0.7,0.7v12.6c0,0.4,0.3,0.7,0.7,0.7h4.2c0.4,0,0.7-0.3,0.7-0.7V15.3C23,14.9,22.7,14.6,22.3,14.6z
			 M21.6,27.2h-2.8V16h2.8V27.2z"/>
	</g>
</g>
</svg>
