<?xml version="1.0" encoding="utf-8"?>
<!-- Generator: Adobe Illustrator 19.1.0, SVG Export Plug-In . SVG Version: 6.00 Build 0)  -->
<svg version="1.1" id="Layer_1" xmlns="http://www.w3.org/2000/svg" xmlns:xlink="http://www.w3.org/1999/xlink" x="0px" y="0px"
	 width="32px" height="32px" viewBox="0 0 32 32" enable-background="new 0 0 32 32" xml:space="preserve">
<g id="Info_x40_2x.png">
	<g>
		<path d="M18.1,22.3c-0.4,0-0.7-0.1-0.9-0.2c-0.2-0.1-0.3-0.4-0.3-0.8c0-0.2,0-0.4,0.1-0.7c0.1-0.3,0.1-0.6,0.2-0.8L18,17
			c0.1-0.3,0.1-0.5,0.2-0.9c0-0.3,0-0.5,0-0.7c0-0.6-0.2-1.1-0.6-1.5c-0.4-0.4-1-0.6-1.8-0.6c-0.4,0-0.9,0.1-1.4,0.2
			c-0.5,0.2-1,0.3-1.6,0.6l-0.2,0.9c0.2-0.1,0.4-0.1,0.6-0.2c0.2-0.1,0.4-0.1,0.7-0.1c0.4,0,0.7,0.1,0.9,0.2
			c0.2,0.1,0.2,0.4,0.2,0.8c0,0.2,0,0.4-0.1,0.7c-0.1,0.2-0.1,0.5-0.2,0.8l-0.8,2.9c-0.1,0.3-0.1,0.6-0.2,0.8c0,0.2-0.1,0.5-0.1,0.7
			c0,0.6,0.2,1.1,0.7,1.5c0.4,0.4,1.1,0.6,1.9,0.6c0.5,0,1-0.1,1.4-0.2c0.4-0.1,0.9-0.3,1.6-0.6l0.2-0.9c-0.1,0.1-0.3,0.1-0.6,0.2
			C18.5,22.3,18.3,22.3,18.1,22.3z M16,0.6C7.5,0.6,0.6,7.5,0.6,16c0,8.5,6.9,15.4,15.4,15.4c8.5,0,15.4-6.9,15.4-15.4
			C31.4,7.5,24.5,0.6,16,0.6z M16,30C8.3,30,2,23.7,2,16S8.3,2,16,2s14,6.3,14,14S23.7,30,16,30z M17.5,8.3c-0.5,0-1,0.2-1.4,0.5
			c-0.4,0.4-0.6,0.8-0.6,1.3c0,0.5,0.2,0.9,0.6,1.3c0.4,0.3,0.9,0.5,1.4,0.5c0.5,0,1-0.2,1.4-0.5s0.6-0.8,0.6-1.3
			c0-0.5-0.2-0.9-0.6-1.3C18.5,8.5,18.1,8.3,17.5,8.3z"/>
	</g>
</g>
</svg>
