<?xml version="1.0" encoding="utf-8"?>
<!-- Generator: Adobe Illustrator 19.1.0, SVG Export Plug-In . SVG Version: 6.00 Build 0)  -->
<svg version="1.1" id="Layer_1" xmlns="http://www.w3.org/2000/svg" xmlns:xlink="http://www.w3.org/1999/xlink" x="0px" y="0px"
	 width="32px" height="32px" viewBox="0 0 32 32" enable-background="new 0 0 32 32" xml:space="preserve">
<g id="Error_x40_2x.png">
	<g>
		<path d="M16,0.6C7.5,0.6,0.6,7.5,0.6,16c0,8.5,6.9,15.4,15.4,15.4c8.5,0,15.4-6.9,15.4-15.4C31.4,7.5,24.5,0.6,16,0.6z M16,30
			C8.3,30,2,23.7,2,16S8.3,2,16,2s14,6.3,14,14S23.7,30,16,30z M16,20.2c-0.8,0-1.4,0.6-1.4,1.4S15.2,23,16,23s1.4-0.6,1.4-1.4
			S16.8,20.2,16,20.2z M17.4,9h-2.8c-0.4,0-0.7,0.3-0.7,0.7c0,0,0,0,0,0h0l0.7,8.4l0,0c0,0.4,0.3,0.7,0.7,0.7h1.4
			c0.4,0,0.7-0.3,0.7-0.7l0,0l0.7-8.4h0c0,0,0,0,0,0C18.1,9.3,17.8,9,17.4,9z"/>
	</g>
</g>
</svg>
