<?xml version="1.0" encoding="utf-8"?>
<!-- Generator: Adobe Illustrator 19.1.0, SVG Export Plug-In . SVG Version: 6.00 Build 0)  -->
<svg version="1.1" id="Layer_1" xmlns="http://www.w3.org/2000/svg" xmlns:xlink="http://www.w3.org/1999/xlink" x="0px" y="0px"
	 width="32px" height="32px" viewBox="0 0 32 32" enable-background="new 0 0 32 32" xml:space="preserve">
<g id="Tag_x40_2x.png">
	<g>
		<path d="M17.4,19.5c0.2,0,0.4-0.1,0.5-0.2l2.8-2.8c0.1-0.1,0.2-0.3,0.2-0.5c0-0.4-0.3-0.7-0.7-0.7c-0.2,0-0.4,0.1-0.5,0.2
			l-2.8,2.8c-0.1,0.1-0.2,0.3-0.2,0.5C16.7,19.2,17,19.5,17.4,19.5z M6.9,4.8c-1.2,0-2.1,0.9-2.1,2.1C4.8,8.1,5.7,9,6.9,9
			S9,8.1,9,6.9C9,5.7,8.1,4.8,6.9,4.8z M6.9,7.6c-0.4,0-0.7-0.3-0.7-0.7c0-0.4,0.3-0.7,0.7-0.7c0.4,0,0.7,0.3,0.7,0.7
			C7.6,7.3,7.3,7.6,6.9,7.6z M31.2,16.2L15.8,0.8c-0.1-0.1-0.3-0.2-0.5-0.2H2.7c-1.2,0-2.1,0.9-2.1,2.1v12.6c0,0.2,0.1,0.4,0.2,0.5
			l15.4,15.4c0.1,0.1,0.3,0.2,0.5,0.2s0.4-0.1,0.5-0.2l14-14c0.1-0.1,0.2-0.3,0.2-0.5C31.4,16.5,31.3,16.3,31.2,16.2z M16.7,29.7
			L2,15V2.7C2,2.3,2.3,2,2.7,2H15l14.7,14.7L16.7,29.7z M16.7,25.8c0.2,0,0.4-0.1,0.5-0.2l4.2-4.2c0.1-0.1,0.2-0.3,0.2-0.5
			c0-0.4-0.3-0.7-0.7-0.7c-0.2,0-0.4,0.1-0.5,0.2l-4.2,4.2c-0.1,0.1-0.2,0.3-0.2,0.5C16,25.5,16.3,25.8,16.7,25.8z M13.4,21.8
			c-0.1,0.1-0.2,0.3-0.2,0.5c0,0.4,0.3,0.7,0.7,0.7c0.2,0,0.4-0.1,0.5-0.2l1.4-1.4c0.1-0.1,0.2-0.3,0.2-0.5c0-0.4-0.3-0.7-0.7-0.7
			c-0.2,0-0.4,0.1-0.5,0.2L13.4,21.8z"/>
	</g>
</g>
</svg>
