<?xml version="1.0" encoding="utf-8"?>
<!-- Generator: Adobe Illustrator 19.1.0, SVG Export Plug-In . SVG Version: 6.00 Build 0)  -->
<svg version="1.1" id="Layer_1" xmlns="http://www.w3.org/2000/svg" xmlns:xlink="http://www.w3.org/1999/xlink" x="0px" y="0px"
	 width="32px" height="32px" viewBox="0 0 32 32" style="enable-background:new 0 0 32 32;" xml:space="preserve">
<g id="Clock_1_x40_2x.png">
	<g>
		<path d="M7.3,10.1c-0.3-0.2-0.8-0.1-1,0.3c-0.2,0.3-0.1,0.8,0.3,1c0.3,0.2,0.8,0.1,1-0.3C7.7,10.8,7.6,10.3,7.3,10.1z M11.1,24.5
			c-0.3-0.2-0.8-0.1-1,0.3c-0.2,0.3-0.1,0.8,0.3,1c0.3,0.2,0.8,0.1,1-0.3C11.5,25.1,11.4,24.7,11.1,24.5z M5.5,15.3
			c-0.4,0-0.7,0.3-0.7,0.7c0,0.4,0.3,0.7,0.7,0.7s0.7-0.3,0.7-0.7C6.2,15.6,5.9,15.3,5.5,15.3z M20.9,7.5c0.3,0.2,0.8,0.1,1-0.3
			c0.2-0.3,0.1-0.8-0.3-1c-0.3-0.2-0.8-0.1-1,0.3C20.5,6.9,20.6,7.3,20.9,7.5z M6.6,20.6c-0.3,0.2-0.4,0.6-0.3,1
			c0.2,0.3,0.6,0.4,1,0.3c0.3-0.2,0.4-0.6,0.3-1C7.3,20.6,6.9,20.5,6.6,20.6z M10.4,6.3c-0.3,0.2-0.4,0.6-0.3,1
			c0.2,0.3,0.6,0.4,1,0.3c0.3-0.2,0.4-0.6,0.3-1C11.2,6.2,10.7,6.1,10.4,6.3z M24.7,10.1c-0.3,0.2-0.4,0.6-0.3,1
			c0.2,0.3,0.6,0.4,1,0.3c0.3-0.2,0.4-0.6,0.3-1C25.5,10.1,25.1,10,24.7,10.1z M16,25.8c-0.4,0-0.7,0.3-0.7,0.7
			c0,0.4,0.3,0.7,0.7,0.7s0.7-0.3,0.7-0.7C16.7,26.1,16.4,25.8,16,25.8z M25.4,20.6c-0.3-0.2-0.8-0.1-1,0.3c-0.2,0.3-0.1,0.8,0.3,1
			c0.3,0.2,0.8,0.1,1-0.3C25.9,21.3,25.8,20.8,25.4,20.6z M16,0.6C7.5,0.6,0.6,7.5,0.6,16c0,8.5,6.9,15.4,15.4,15.4
			c8.5,0,15.4-6.9,15.4-15.4C31.4,7.5,24.5,0.6,16,0.6z M16,30C8.3,30,2,23.7,2,16S8.3,2,16,2s14,6.3,14,14S23.7,30,16,30z
			 M26.5,15.3c-0.4,0-0.7,0.3-0.7,0.7c0,0.4,0.3,0.7,0.7,0.7s0.7-0.3,0.7-0.7C27.2,15.6,26.9,15.3,26.5,15.3z M22.3,15.3h-3.6
			c-0.3-1-1-1.7-2-2V5.5c0-0.4-0.3-0.7-0.7-0.7s-0.7,0.3-0.7,0.7v7.8c-1.2,0.3-2.1,1.4-2.1,2.7c0,1.5,1.3,2.8,2.8,2.8
			c1.3,0,2.4-0.9,2.7-2.1h3.6c0.4,0,0.7-0.3,0.7-0.7C23,15.6,22.7,15.3,22.3,15.3z M16,17.4c-0.8,0-1.4-0.6-1.4-1.4
			c0-0.8,0.6-1.4,1.4-1.4s1.4,0.6,1.4,1.4C17.4,16.8,16.8,17.4,16,17.4z M20.9,24.5c-0.3,0.2-0.4,0.6-0.3,1c0.2,0.3,0.6,0.4,1,0.3
			c0.3-0.2,0.4-0.6,0.3-1C21.7,24.4,21.2,24.3,20.9,24.5z"/>
	</g>
</g>
</svg>
