<?xml version="1.0" encoding="utf-8"?>
<!-- Generator: Adobe Illustrator 19.1.0, SVG Export Plug-In . SVG Version: 6.00 Build 0)  -->
<svg version="1.1" id="Layer_1" xmlns="http://www.w3.org/2000/svg" xmlns:xlink="http://www.w3.org/1999/xlink" x="0px" y="0px"
	 width="32px" height="32px" viewBox="0 0 32 32" enable-background="new 0 0 32 32" xml:space="preserve">
<g id="Trash_x40_2x.png">
	<g>
		<path d="M20.2,27.2c0.4,0,0.7-0.3,0.7-0.7l1-16.8c0-0.4-0.3-0.7-0.7-0.7c-0.4,0-0.7,0.3-0.7,0.7l-1,16.8
			C19.5,26.9,19.8,27.2,20.2,27.2z M11.8,27.2c0.4,0,0.7-0.3,0.7-0.7l-1-16.8c0-0.4-0.3-0.7-0.7-0.7c-0.4,0-0.7,0.3-0.7,0.7l1,16.8
			C11.1,26.9,11.4,27.2,11.8,27.2z M27.9,4.8h-7V2c0-0.8-0.6-1.4-1.4-1.4h-7c-0.8,0-1.4,0.6-1.4,1.4v2.8h-7c-0.4,0-0.7,0.3-0.7,0.7
			c0,0.4,0.3,0.7,0.7,0.7h1.4l1.4,22.4c0.2,1.5,1.3,2.8,2.8,2.8h12.6c1.5,0,2.5-1.3,2.8-2.8l1.4-22.4h1.4c0.4,0,0.7-0.3,0.7-0.7
			C28.6,5.1,28.3,4.8,27.9,4.8z M12.5,2h7v2.8h-7V2z M23.7,28.6c-0.1,0.7-0.6,1.4-1.4,1.4H9.7c-0.8,0-1.3-0.7-1.4-1.4L6.9,6.2h18.2
			L23.7,28.6z M16,27.2c0.4,0,0.7-0.3,0.7-0.7V9.7C16.7,9.3,16.4,9,16,9s-0.7,0.3-0.7,0.7v16.8C15.3,26.9,15.6,27.2,16,27.2z"/>
	</g>
</g>
</svg>
