<?xml version="1.0" encoding="utf-8"?>
<!-- Generator: Adobe Illustrator 19.1.0, SVG Export Plug-In . SVG Version: 6.00 Build 0)  -->
<svg version="1.1" id="Layer_1" xmlns="http://www.w3.org/2000/svg" xmlns:xlink="http://www.w3.org/1999/xlink" x="0px" y="0px"
	 width="32px" height="32px" viewBox="0 0 32 32" enable-background="new 0 0 32 32" xml:space="preserve">
<g id="Down_Arrow_4_1_">
	<g>
		<path d="M24.4,16c0-0.2-0.1-0.4-0.2-0.5l0,0L8.8,0.8l0,0C8.7,0.7,8.5,0.6,8.3,0.6c-0.4,0-0.7,0.3-0.7,0.7v29.4
			c0,0.4,0.3,0.7,0.7,0.7c0.2,0,0.4-0.1,0.5-0.2l0,0l15.4-14.7l0,0C24.3,16.4,24.4,16.2,24.4,16z M9,29.1V2.9L22.7,16L9,29.1z"/>
	</g>
</g>
</svg>
