<?xml version="1.0" encoding="utf-8"?>
<!-- Generator: Adobe Illustrator 19.1.0, SVG Export Plug-In . SVG Version: 6.00 Build 0)  -->
<svg version="1.1" id="Layer_1" xmlns="http://www.w3.org/2000/svg" xmlns:xlink="http://www.w3.org/1999/xlink" x="0px" y="0px"
	 width="32px" height="32px" viewBox="0 0 32 32" enable-background="new 0 0 32 32" xml:space="preserve">
<g id="Down_Arrow_4_1_">
	<g>
		<path d="M31.2,23.2L31.2,23.2L16.5,7.8l0,0c-0.1-0.1-0.3-0.2-0.5-0.2s-0.4,0.1-0.5,0.2l0,0L0.8,23.2l0,0c-0.1,0.1-0.2,0.3-0.2,0.5
			c0,0.4,0.3,0.7,0.7,0.7h29.4c0.4,0,0.7-0.3,0.7-0.7C31.4,23.5,31.3,23.3,31.2,23.2z M2.9,23L16,9.3L29.1,23H2.9z"/>
	</g>
</g>
</svg>
