<?xml version="1.0" encoding="utf-8"?>
<!-- Generator: Adobe Illustrator 19.1.0, SVG Export Plug-In . SVG Version: 6.00 Build 0)  -->
<svg version="1.1" id="Layer_1" xmlns="http://www.w3.org/2000/svg" xmlns:xlink="http://www.w3.org/1999/xlink" x="0px" y="0px"
	 width="32px" height="32px" viewBox="0 0 32 32" enable-background="new 0 0 32 32" xml:space="preserve">
<g id="Down_Arrow_4_1_">
	<g>
		<path d="M23.7,0.6c-0.2,0-0.4,0.1-0.5,0.2l0,0L7.8,15.5l0,0c-0.1,0.1-0.2,0.3-0.2,0.5c0,0.2,0.1,0.4,0.2,0.5l0,0l15.4,14.7l0,0
			c0.1,0.1,0.3,0.2,0.5,0.2c0.4,0,0.7-0.3,0.7-0.7V1.3C24.4,0.9,24.1,0.6,23.7,0.6z M23,29.1L9.3,16L23,2.9V29.1z"/>
	</g>
</g>
</svg>
