<?xml version="1.0" encoding="utf-8"?>
<!-- Generator: Adobe Illustrator 19.1.0, SVG Export Plug-In . SVG Version: 6.00 Build 0)  -->
<svg version="1.1" id="Layer_1" xmlns="http://www.w3.org/2000/svg" xmlns:xlink="http://www.w3.org/1999/xlink" x="0px" y="0px"
	 width="32px" height="32px" viewBox="0 0 32 32" enable-background="new 0 0 32 32" xml:space="preserve">
<g id="Down_Arrow_4_1_">
	<g>
		<path d="M31.4,8.3c0-0.4-0.3-0.7-0.7-0.7H1.3c-0.4,0-0.7,0.3-0.7,0.7c0,0.2,0.1,0.4,0.2,0.5l0,0l14.7,15.4l0,0
			c0.1,0.1,0.3,0.2,0.5,0.2s0.4-0.1,0.5-0.2l0,0L31.2,8.8l0,0C31.3,8.7,31.4,8.5,31.4,8.3z M16,22.7L2.9,9h26.1L16,22.7z"/>
	</g>
</g>
</svg>
