<?xml version="1.0" encoding="utf-8"?>
<!-- Generator: Adobe Illustrator 19.1.0, SVG Export Plug-In . SVG Version: 6.00 Build 0)  -->
<svg version="1.1" id="Layer_1" xmlns="http://www.w3.org/2000/svg" xmlns:xlink="http://www.w3.org/1999/xlink" x="0px" y="0px"
	 width="32px" height="32px" viewBox="0 0 32 32" enable-background="new 0 0 32 32" xml:space="preserve">
<g id="User_Male_x40_2x.png">
	<g>
		<path d="M16,0.6C7.5,0.6,0.6,7.5,0.6,16c0,8.5,6.9,15.4,15.4,15.4S31.4,24.5,31.4,16C31.4,7.5,24.5,0.6,16,0.6z M16,30
			c-3.5,0-6.7-1.3-9.1-3.4c1.9-1.7,2.8-2.1,4.9-3c2.4-1.1,3.2-3,2.3-5.2c-0.2-0.4-0.4-0.8-0.6-1.2c-0.7-1.3-1.6-2.9-1.6-6.3
			c0-4.1,2-4.1,3.5-4.2c1.1,0,1.6-0.2,2.1-0.4c0.3-0.1,0.5-0.2,0.8-0.2c1.3,0,2.7,1.3,2.7,4.9c0,3.6-0.5,4.5-1.4,6
			c-0.2,0.4-0.5,0.8-0.7,1.3c-0.5,1-0.6,1.9-0.3,2.7c0.4,1.1,1.3,1.9,3,2.7c1.4,0.7,2.9,1.9,3.6,2.7C22.7,28.7,19.5,30,16,30z
			 M26.2,25.6c-0.8-0.8-2.4-2.2-4.1-3c-1.3-0.6-2.1-1.3-2.3-1.9c-0.2-0.5-0.1-1,0.2-1.6c0.2-0.5,0.5-0.9,0.7-1.2
			c0.9-1.6,1.5-2.7,1.5-6.7c0-6-3.4-6.3-4.1-6.3c-0.6,0-0.9,0.1-1.2,0.2c-0.4,0.1-0.8,0.3-1.6,0.3c-1.6,0-4.9,0.1-4.9,5.6
			c0,3.8,1,5.6,1.8,7c0.2,0.4,0.4,0.7,0.5,1c0.7,1.5,0.2,2.6-1.5,3.3c-2.2,1-3.2,1.5-5.3,3.3C3.5,23.1,2,19.7,2,16C2,8.3,8.3,2,16,2
			s14,6.3,14,14C30,19.7,28.6,23.1,26.2,25.6z"/>
	</g>
</g>
</svg>
